<?xml version="1.0" encoding="utf-8"?>
<!-- Generator: Adobe Illustrator 22.0.1, SVG Export Plug-In . SVG Version: 6.00 Build 0)  -->
<svg version="1.1" id="Livello_1" xmlns="http://www.w3.org/2000/svg" xmlns:xlink="http://www.w3.org/1999/xlink" x="0px" y="0px"
	 viewBox="0 0 398 305" style="enable-background:new 0 0 398 305;" xml:space="preserve">
<style type="text/css">
	.st0{fill:#FFFFFF;}
</style>
<title>asu_university_vert_rgb</title>
<g transform="translate(-1 -1)">
	<g transform="translate(0 179.31)">
		<path class="st0" d="M30.6,1.7l17.1,46.6H35.3l-2.2-7.4H16l-2.2,7.4H1.4L18.8,1.7L30.6,1.7L30.6,1.7z M24.3,13
			c-0.6,2.5-1.4,5-1.9,7.2c-1.1,3.6-2.8,9.1-3.9,12.4h11.9L24.3,13L24.3,13z M60.4,17.4c2.2-1.9,4.7-3.3,9.9-3.9v9.1L67,23.2
			c-5,0.8-6.3,1.7-6.3,6.1v19.6H50.5v-35h9.9L60.4,17.4L60.4,17.4z M73.9,1.7h9.9v8h-9.9C73.9,9.7,73.9,1.7,73.9,1.7z M73.9,13.8
			h9.9v34.8h-9.9C73.9,48.6,73.9,13.8,73.9,13.8z"/>
		<path class="st0" d="M90.2,13.8h29.5v7.7l-18.5,18.8h18.5v8H88.3v-7.7l18.8-19H90.5v-7.7H90.2z"/>
		<path class="st0" d="M158.9,31.2c0,8.8-5,18.2-18.5,18.2c-9.7,0-18.5-5.5-18.5-18.2c0-10.5,6.6-19,19.9-18.2
			C155.6,13.5,158.9,24.8,158.9,31.2z M133.5,24.3c-1.4,1.9-1.7,4.4-1.7,6.6c0,5.5,2.8,10.2,8.3,10.2s8.3-4.4,8.3-9.9
			c0-3.9-0.8-6.9-2.8-8.6c-2.2-1.9-4.4-1.9-6.1-1.9C136.8,21.2,134.9,22.1,133.5,24.3z M172.4,17.1c1.1-1.1,1.7-1.9,3.3-2.8
			c1.7-0.6,3.9-1.4,6.3-1.4c1.9,0,4.4,0.3,6.1,1.4c3.6,1.9,4.7,5,4.7,10.5v23.7h-10.2V29c0-3,0-4.1-0.6-5.2
			c-0.8-1.9-2.5-2.8-4.7-2.8c-5.2,0-5.2,4.4-5.2,8.6v18.8h-10.2V14.1h10.2L172.4,17.1L172.4,17.1z M198.1,23.7
			c0.3-2.5,0.6-5.2,3.6-7.7c3.3-2.5,7.2-3,11.3-3c4.1,0,14.6,1.1,14.6,9.9V43c0,3.6,0.3,4.1,1.1,5.5h-9.9v-3.3
			c-2.5,1.9-5.5,4.1-10.5,4.1c-8,0-11.3-5.8-11.3-10.5c0-5.5,4.4-8.8,7.2-9.9c2.8-1.1,9.4-2.5,13.5-3.3v-1.9c0-1.7-0.3-4.1-3.9-4.1
			c-4.4,0-5,2.8-5.2,4.1C208.6,23.7,198.1,23.7,198.1,23.7z M210.8,34.2c-1.7,0.6-4.4,1.7-4.4,4.4c0,1.7,1.4,3.6,3.9,3.6
			c1.4,0,2.5-0.6,3.6-1.1c3.3-2.2,3.6-5.2,3.6-8.8L210.8,34.2L210.8,34.2z M249.9,34.5c1.1,1.4,2.2,2.5,4.4,3.6
			c3,1.7,6.3,2.2,9.1,2.2c4.7,0,8.6-2.2,8.6-5.5c0-3.6-4.7-4.4-8.3-4.7c-2.5-0.3-5.2-0.6-7.7-1.1c-2.8-0.6-12.7-2.8-12.7-12.7
			c0-12.1,10.8-15.7,18.8-15.7c10.8,0,16.6,5.2,20.7,8.8l-8.6,6.1c-1.4-1.4-2.8-2.8-4.7-3.9c-1.7-0.8-4.7-1.9-7.7-1.9
			c-4.7,0-6.9,2.8-6.9,5c0,3.6,3.9,4.1,6.1,4.4c5,0.6,11.6,1.9,14.3,2.8c5.2,1.9,8,6.1,8,11.6c0,3.3-1.4,7.2-3.6,9.9
			c-4.1,5-11,6.3-17.7,6.3c-13.2,0-18.5-6.1-21.2-9.4L249.9,34.5L249.9,34.5z M288.8,3.9H299v10.8h6.6V21H299v15.4
			c0,2.2,0,3.9,2.8,3.9h3.6v8c-2.2,0.3-3.6,0.6-5.2,0.6c-3.6,0-7.4-0.3-9.7-3.3c-1.4-1.9-1.4-4.4-1.4-7.7V21.2h-5v-6.3h5v-11
			L288.8,3.9L288.8,3.9z M308.7,23.7c0.3-2.5,0.6-5.2,3.6-7.7c3.3-2.5,7.2-3,11.3-3s14.6,1.1,14.6,9.9V43c0,3.6,0.3,4.1,1.1,5.5
			h-9.9v-3.3c-2.5,1.9-5.5,4.1-10.5,4.1c-8,0-11.3-5.8-11.3-10.5c0-5.5,4.4-8.8,7.2-9.9c2.8-1.1,9.4-2.5,13.5-3.3v-1.9
			c0-1.7-0.3-4.1-3.9-4.1c-4.4,0-5,2.8-5.2,4.1C319.2,23.7,308.7,23.7,308.7,23.7z M321.7,34.2c-1.7,0.6-4.4,1.7-4.4,4.4
			c0,1.7,1.4,3.6,3.9,3.6c1.4,0,2.5-0.6,3.6-1.1c3.3-2.2,3.6-5.2,3.6-8.8L321.7,34.2L321.7,34.2z M345.1,3.9h10.2v10.8h6.6V21h-6.6
			v15.4c0,2.2,0,3.9,2.8,3.9h3.6v8c-2.2,0.3-3.6,0.6-5.2,0.6c-3.6,0-7.4-0.3-9.7-3.3c-1.4-1.9-1.4-4.4-1.4-7.7V21.2h-5v-6.3h5v-11
			C345.4,3.9,345.1,3.9,345.1,3.9z M398.1,39.7c-1.1,1.7-2.5,3.6-4.1,5.2c-3,2.8-7.4,5-13,5c-10.2,0-17.4-6.6-17.4-17.9
			c0-8.3,4.1-19,17.7-19c1.9,0,8,0.3,12.4,5c4.4,5,4.7,11.6,5,15.4h-24.8c0,4.4,2.5,8.6,8,8.6s7.4-3.6,8.8-6.1L398.1,39.7z
			 M387.9,26.8c-0.3-1.4-0.6-3.3-1.9-5c-1.4-1.4-3.3-1.9-5-1.9c-2.5,0-4.1,1.1-5.2,2.2c-1.4,1.7-1.7,3-1.9,4.7H387.9z"/>
		<g>
			<path class="st0" d="M41.1,67.9v26.2c0,4.4,0,9.1-2.8,13.2c-5,8-15.4,8.6-17.4,8.6c-3.6,0-7.7-0.8-10.8-2.5
				c-9.1-4.7-9.1-13-8.8-19.3V67.9h11.9v29.2c0,2.5,0,4.4,0.8,5.8c1.4,2.5,4.7,3.3,7.4,3.3c8,0,8-5.5,8-9.1v-29
				C29.5,68.1,41.1,67.9,41.1,67.9z M56.6,83.3c1.1-1.1,1.7-1.9,3.3-2.8c1.7-0.6,3.9-1.4,6.3-1.4c1.9,0,4.4,0.3,6.1,1.4
				c3.6,1.9,4.7,5,4.7,10.5v23.7H66.8V95.2c0-3,0-4.1-0.6-5.2c-0.8-1.9-2.5-2.8-4.7-2.8c-5.2,0-5.2,4.4-5.2,8.6v18.8H46.1V80h10.2
				v3.3C56.3,83.3,56.6,83.3,56.6,83.3z M82.5,67.9h9.9v8h-9.9L82.5,67.9L82.5,67.9z M82.5,80h9.9v34.8h-9.9L82.5,80L82.5,80z
				 M95.4,80h10.8c4.1,15.4,5,18.5,6.1,25.1c1.4-7.7,1.7-8.6,3.6-16.6l2.2-8.6h10.5l-11.3,34.5h-10.8L95.4,80L95.4,80z M163,105.9
				c-1.1,1.7-2.5,3.6-4.1,5.2c-3,2.8-7.4,5-13,5c-10.2,0-17.4-6.6-17.4-17.9c0-8.3,4.1-19,17.7-19c1.9,0,8,0.3,12.4,5
				c4.4,5,4.7,11.6,5,15.4h-24.8c0,4.4,2.5,8.6,8,8.6c5.5,0,7.4-3.6,8.8-6.1L163,105.9L163,105.9z M152.8,93c-0.3-1.4-0.6-3.3-1.9-5
				c-1.4-1.4-3.3-1.9-5-1.9c-2.5,0-4.1,1.1-5.2,2.2c-1.4,1.7-1.7,3-1.9,4.7H152.8z M177.4,83.6c2.2-1.9,4.7-3.3,9.9-3.9v9.1
				l-3.3,0.6c-5,0.8-6.3,1.7-6.3,6.1V115h-10.2V80h9.9C177.4,80,177.4,83.6,177.4,83.6z M193.7,102.9c2.8,2.8,6.3,4.7,9.9,4.7
				c2.5,0,6.1-0.8,6.1-3.3c0-1.1-0.8-1.7-1.4-1.9c-1.7-0.8-3.9-1.1-5.8-1.4c-1.7-0.3-3-0.6-4.7-1.1c-2.2-0.6-4.1-1.4-5.8-3
				c-1.7-1.7-2.5-3.9-2.5-6.6c0-5.8,5-11.6,14.6-11.6c8.3,0,13,3.6,15.4,5.2l-6.3,5.8c-3.3-2.5-6.3-3.3-8.6-3.3c-3.9,0-5,1.7-5,2.5
				c0,1.9,2.2,2.5,5.5,3c6.9,1.4,14.9,3,14.9,11.3c0,8.3-8.3,12.1-16.3,12.1c-9.7,0-14.6-4.7-16.8-6.6L193.7,102.9L193.7,102.9z
				 M223.4,67.9h9.9v8h-9.9L223.4,67.9L223.4,67.9z M223.4,80h9.9v34.8h-9.9L223.4,80L223.4,80z M242.2,70.1h10.2v10.8h6.6v6.3h-6.6
				v15.4c0,2.2,0,3.9,2.8,3.9h3.6v8c-2.2,0.3-3.6,0.6-5.2,0.6c-3.6,0-7.4-0.3-9.7-3.3c-1.4-1.9-1.4-4.4-1.4-7.7V87.4h-5.2v-6.3h5
				L242.2,70.1L242.2,70.1z M294.3,80l-12.1,37.2c-0.8,2.2-1.7,4.4-3.3,6.3c-2.5,2.5-4.7,2.8-7.4,2.8H264v-8h3.6
				c1.7,0,4.1,0,4.1-2.5c0-0.8-0.3-1.7-0.6-2.5L261,80h10.8l5.8,24.8l5.8-24.8H294.3z"/>
		</g>
	</g>
	<path class="st0" d="M335.7,138.2c-5-5.2-4.7-10.8-4.7-10.8V1.1h-47.7v101c-0.6,9.7-9.9,11.9-15.2,11.9
		c-7.4-0.3-11.6-4.4-11.6-11.6V1.1h-46.6h-32.8c-25.4,0-49.4,3.9-57.7,25.1l-4.7-18.8c-1.1-3.9-5.2-6.3-9.1-6.3h-83
		c-1.1,0-1.7,0.3-1.1,1.1c0,0,2.2,2.2,6.3,6.9c5.8,6.6,3.6,15.2,3.6,15.2L1.1,146.2h44.4l6.3-26.8h42.8l6.6,26.8h58.2
		c24,0,43.3-2.5,53-17.4c7.2,13.5,22.6,20.1,49.9,17.7c9.4-0.8,18.8-5.2,22.9-12.4l1.9,5.8c1.7,3.6,5,6.1,9.4,6.1h44.7
		c1.1,0.3,1.7,0,0.8-0.8C342.1,145.1,339.6,142.3,335.7,138.2z M110.6,27.3l8,4.7c-0.3,1.4-0.6,3-0.8,4.4l-8.3-7.7
		C108.7,27.9,109.8,26.8,110.6,27.3z M102.6,37.2l14.9,6.1c0,1.7,0,4.1,0.3,6.1l-16-10.5C101,38.3,101.5,37,102.6,37.2z M96.6,48.8
		l22.1,5c0.6,2.8,1.7,5.5,2.8,7.7L96,50.5C95.2,49.9,95.4,48.6,96.6,48.8L96.6,48.8z M58.5,93l14.6-59.6L88,93H58.5L58.5,93z
		 M180.7,112.8c-4.1,3.9-12.1,5.8-20.7,5c-5-0.6-9.9-3-9.9-3l-17.9,22.1c-0.8,0.8-2.2,0-1.7-1.1l12.1-24.6c0.3-0.3-0.3-0.6-0.6-0.3
		l-21.8,19c-0.8,0.8-1.9-0.3-1.4-1.4l16.8-22.3c0.3-0.3,0-0.6-0.3-0.3l-25.1,15.2c-0.8,0.6-1.9-0.8-1.1-1.4l21-19.6
		c0.3-0.3,0-0.6-0.3-0.6l-27.9,11.3c-1.1,0.3-1.7-1.1-0.8-1.7l24.6-16c0.3-0.3,0-0.6-0.3-0.6l-29,6.9c-1.1,0.3-1.4-1.1-0.6-1.7
		l27.3-11.9c0.3,0,0.3-0.6,0-0.6L93,87.4c-1.1,0-1.4-1.4-0.3-1.7l29.2-7.4c0.3,0,0.3-0.6,0-0.6L91.6,75c-1.1,0-1.1-1.7,0-1.7
		l30.3-2.8c0.3,0,0.3-0.3,0-0.6l-29.2-7.4C91.6,62.3,91.9,61,93,61l29,1.7c7.4,13.5,23.2,19,37,24c13.5,4.7,25.1,8.6,25.1,19
		C184,108.4,182.9,110.9,180.7,112.8L180.7,112.8z M222.3,129.9l-6.9-6.1c0,0,1.1-2.5,1.7-4.1l6.6,8.8
		C224.3,129.4,223.2,130.5,222.3,129.9L222.3,129.9z M232.3,121.1l-13.8-8.3c0,0,0.6-4.1,0.6-6.3l14.3,13.2
		C234.2,120.6,233.1,121.7,232.3,121.1L232.3,121.1z M240.3,110.9l-21-8.6c0,0,0-5-0.6-7.7l22.3,14.6
		C241.9,109.8,241.4,111.2,240.3,110.9L240.3,110.9z M251.3,74.5L221,77.2c-0.3,0-0.3,0.3,0,0.6l29.2,7.4c1.1,0.3,0.8,1.7-0.3,1.7
		L219.6,85c-0.3,0-0.3,0.3,0,0.6l27.3,11.9c1.1,0.6,0.6,1.9-0.6,1.7l-27.9-5.8c0,0-1.1-12.4-15.7-22.6c-7.4-5.2-16.8-8.8-24.8-11.9
		c-6.3-2.5-12.1-4.7-16.3-7.2c-4.7-3-6.9-6.3-6.9-10.2c0-2.8,0.8-5.2,2.8-7.2c3.3-3.3,9.1-4.7,17.1-4.7c8.6,0,17.7,3.9,17.7,3.9
		l18.2-22.6c0.8-0.8,2.2,0,1.7,1.1l-12.4,24.8c0,0.3,0.3,0.6,0.3,0.3l22.1-19c0.8-0.8,1.9,0.3,1.4,1.4l-17.1,22.6
		c-0.3,0.3,0,0.6,0.3,0.3L232,26.8c0.8-0.6,1.9,0.8,1.1,1.4l-21,19.6c-0.3,0.3,0,0.6,0.3,0.3l27.9-11.3c1.1-0.3,1.7,1.1,0.8,1.7
		l-24.6,16c-0.3,0.3,0,0.6,0.3,0.6l29.5-6.6c1.1-0.3,1.4,1.1,0.6,1.7l-27.3,11.9c-0.3,0-0.3,0.6,0,0.6l30.3-1.9
		c1.1,0,1.4,1.4,0.3,1.7L221,69.5c-0.3,0-0.3,0.6,0,0.6l30.3,2.8C252.4,72.8,252.4,74.5,251.3,74.5L251.3,74.5z"/>
</g>
</svg>
