<?xml version="1.0" encoding="utf-8"?>
<!-- Generator: Adobe Illustrator 22.0.1, SVG Export Plug-In . SVG Version: 6.00 Build 0)  -->
<svg version="1.1" id="Livello_1" xmlns="http://www.w3.org/2000/svg" xmlns:xlink="http://www.w3.org/1999/xlink" x="0px" y="0px"
	 viewBox="0 0 399.7 266.5" style="enable-background:new 0 0 399.7 266.5;" xml:space="preserve">
<style type="text/css">
	.st0{fill:#FFFFFF;}
</style>
<g transform="translate(-.17 -.17)">
	<path class="st0" d="M264.4,0.2c1.9,0.4,3.8,0.7,5.7,1.1c8.9,2.2,14,8.3,14.2,17.4c0.2,8.2,0.1,16.5,0,24.8c0,0.7-0.3,1.3-0.8,1.8
		C260.8,63.5,237,80,209.3,90c-11.6,4.2-23.4,6.8-35.8,6.1c-8.6-0.5-16.7-2.7-23.2-8.8c-6.1-5.7-8.6-12.9-7.8-21.1
		c1.2-12.6,8-22.2,16.8-30.7c9.3-9,20.5-14.9,32.2-20.1c14.5-6.5,29.8-11.1,45.5-13.6c4.1-0.6,8.3-0.9,12.4-1.3
		c0.7-0.1,1.4-0.2,2.1-0.4L264.4,0.2z"/>
	<path class="st0" d="M189.9,0.2c-6.7,2.7-13.5,5.2-20.1,8.2c-11.9,5.2-22.7,12.4-32.2,21.3c-10.1,9.5-17.3,21.7-20.8,35.2
		c-0.1,0.4-0.3,0.7-0.6,1.5c0-1.1-0.1-1.7-0.1-2.4c0-15.9,0.3-31.8-0.1-47.8c-0.2-8,6.6-14.3,12.4-15.7c0.3-0.1,0.7-0.2,1-0.4
		L189.9,0.2z"/>
	<path class="st0" d="M399.8,200.3h-7.1v-45.6h7.1V200.3z"/>
	<path class="st0" d="M116.2,94.4c2.3,3.1,4.4,6.4,6.9,9.3c7.7,8.8,17.7,13.3,29.1,15.1c17,2.6,33.4-0.5,49.6-5.6
		c23.2-7.4,44.4-19,64.6-32.4c6-4,11.8-8.2,17.9-12.4c0,0.8,0.1,1.4,0.1,2.1c0,16.1-0.3,32.2,0.1,48.3c0.2,7.5-6.8,14-12.5,15.2
		c-1.2,0.3-2.4,0.4-3.7,0.4c-45.4,0-90.8,0-136.1,0c-7.4,0-14.3-5.4-15.8-12.3c-0.1-0.6-0.2-1.1-0.2-1.7c0-8.4,0-16.8,0-25.2
		C116.1,94.9,116.2,94.6,116.2,94.4z"/>
	<path class="st0" d="M42.6,164l-6.7,3.5c-1.9-3.1-4.9-5.3-8.5-6.2c-8.3-1.9-16.5,3.3-18.4,11.6c-0.1,0.3-0.1,0.6-0.2,0.9
		c-1.1,6.8,0.4,12.8,6,17c6.4,4.9,15.4,4.2,20.4-2.7c0.2-0.2,0.4-0.5,0.7-0.8l6.6,3.3C40,197.3,29.8,202.3,21,201
		c-11.8-1.8-20-10.1-20.8-21.3c-0.9-12,5.6-21.8,16.4-25C27.3,151.6,37.8,155.3,42.6,164L42.6,164z"/>
	<path class="st0" d="M201.9,187.3l6.6,3.3c-4.6,8.2-13.2,11.9-23.7,10c-10.5-2-18.3-11-18.7-21.7c-0.5-11.6,5.9-21,16.5-24.2
		s20.8,0.5,25.9,9.2l-6.7,3.6c-1.9-3.1-4.9-5.3-8.4-6.2c-8.3-1.9-16.5,3.2-18.5,11.5c-0.1,0.4-0.2,0.8-0.2,1.2
		c-1,7,0.7,13.1,6.8,17.2c6.7,4.6,14.7,3.2,19.7-3.2C201.4,187.8,201.6,187.6,201.9,187.3L201.9,187.3z"/>
	<path class="st0" d="M120.8,200.1v-3.4c-2.2,1.3-4.3,3-6.7,3.8c-6.4,2.1-13.4-0.8-16.3-6.8c-3.2-6.1-3.3-13.5-0.1-19.6
		c4.3-8.7,15.3-10.4,22.2-3.6c0.2,0.3,0.3,0.6,0.4,0.9l0.5-0.3v-3.7h7.3v32.9L120.8,200.1z M120.8,183.7c0-1.8,0.1-3.6,0-5.5
		c0-0.6-0.2-1.3-0.5-1.8c-2.1-2.6-5.3-4-8.6-3.7c-3.4,0.1-6.4,2.3-7.6,5.5c-1.4,3.3-1.5,7.1-0.2,10.4c1.5,4.5,6.2,7,10.7,5.8
		c4.3-1,6.2-3.3,6.2-7.6L120.8,183.7z"/>
	<path class="st0" d="M272.2,171.2v-3.9h7.3v32.9h-7.2c0-1.2-0.1-2.4-0.1-3.3c-2.2,1.3-4.3,2.9-6.7,3.7c-6.3,2.1-13.2-0.8-16.2-6.7
		c-3.3-6.2-3.3-13.7-0.1-20c3.4-6.8,11.6-9.5,18.3-6.2c1.3,0.7,2.5,1.5,3.6,2.6C271.4,170.4,271.7,170.7,272.2,171.2L272.2,171.2z
		 M272.3,183.7c0-1.9,0.1-3.8,0-5.6c0-0.7-0.3-1.4-0.7-1.9c-2.9-2.9-6.4-4.3-10.4-3.1c-3.9,1.2-5.7,4.2-6.4,8
		c-0.1,0.6-0.2,1.2-0.2,1.7c-0.1,4.4,0.9,8.4,5.1,10.8c3.4,1.9,7.7,1.2,11-1.6c1.1-0.8,1.8-2.1,1.6-3.5
		C272.2,187,272.3,185.3,272.3,183.7L272.3,183.7z"/>
	<path class="st0" d="M213,154.5h7v16.8c2.7-2.5,5.4-4.4,8.7-4.7c2.6-0.3,5.1-0.2,7.7,0.4c4.5,1.2,6,4.9,6.1,9.1
		c0.2,7.9,0,15.7,0,23.6c0,0.1-0.1,0.2-0.2,0.4h-7.1v-2.1c0-6-0.2-12,0.1-17.9c0.3-7.3-5.1-8.5-9.9-6.8c-0.8,0.3-1.7,0.7-2.4,1.2
		c-2,1-3.2,3.1-3,5.4c0.2,6,0.1,12.1,0.1,18.1v2.2h-7L213,154.5z"/>
	<path class="st0" d="M91.9,186.1H66.4c0.3,7.1,9.5,13.1,19.9,5.5c1.1,1.5,2.1,3,3.2,4.6c-2.8,2.6-6.3,4.3-10.1,4.7
		c-7.2,0.9-13.5-0.7-17.8-7c-6.1-8.9-3-24.8,10.7-27.3c10.3-1.9,18,4.3,19.3,14.3C91.8,182.5,91.8,184.2,91.9,186.1z M84.7,180.7
		c-0.6-5.6-4.5-8.9-10.1-8.5c-4.6,0.3-8.3,4.2-8.1,8.5H84.7z"/>
	<path class="st0" d="M387.7,186.2h-25.3c0.7,8.9,9.9,11.4,20,5.5c1,1.5,2,2.9,3.2,4.6c-2.2,2.1-5,3.6-8,4.2
		c-7.3,1.6-14,0.7-19.1-5.4c-7.5-9.1-4.2-26.1,10.1-28.5c10.8-1.8,18.2,5,19.2,15.4C387.8,183.2,387.7,184.5,387.7,186.2
		L387.7,186.2z M362.4,180.7h18.2c0-4.8-4-8.5-9.1-8.5S362.5,175.9,362.4,180.7z"/>
	<path class="st0" d="M292.4,167.2v3.2c2.8-1.3,5.5-3,8.5-3.7c2.5-0.5,5.1-0.4,7.6,0.2c3.7,0.9,6.2,4.3,6.1,8.1
		c0.1,8.3,0,16.6,0,25.1h-7.1v-2c0-5.9,0-11.7,0-17.6c0-0.8-0.1-1.7-0.2-2.5c-0.3-4.2-3.5-5.9-7.1-5.3c-2.2,0.3-4.4,1.7-6.5,2.8
		c-1.2,0.6-1.5,1.8-1.5,3.1c0.1,7.1,0,14.2,0,21.4h-7.2v-32.8L292.4,167.2z"/>
	<path class="st0" d="M328,200.2h-7.2v-32.9h7.2v3.2c2.9-1.3,5.6-3,8.6-3.7c2.5-0.5,5-0.4,7.5,0.1c3.6,0.8,6.1,3.9,6.2,7.6
		c0.1,8.5,0,17,0,25.6h-7v-2c0-6.1,0-12.1,0-18.1c0-5.8-3.2-8.4-8.8-7c-1.8,0.6-3.5,1.5-5,2.7c-0.8,0.8-1.3,1.8-1.3,2.9
		c-0.1,6.4-0.1,12.9-0.1,19.3L328,200.2z"/>
	<path class="st0" d="M109.6,266.6c-11.8,0-20.8-8.4-22-20.2c-0.8-7.7,0.6-14.9,6-20.6c6.2-6.6,14.1-8.1,22.5-5.8
		s13.1,8.2,15.1,16.5c1.1,4.6,1,9.5-0.3,14.1C128.5,260.2,119.6,266.9,109.6,266.6L109.6,266.6z M91.5,243.6
		c0.2,1.9,0.5,3.9,0.9,5.8c1.8,8,8.8,13.6,17,13.6c8.2,0.1,14.8-4.7,17.3-12.8c1.2-3.9,1.5-8,0.7-11.9c-1.2-6.6-4.4-11.8-11-14.3
		s-12.6-1.8-18,2.6C93.4,230.6,91.7,236.3,91.5,243.6z"/>
	<path class="st0" d="M213.2,219.9h3.6v45.7h-3.4v-5c-2.5,2.8-5,4.7-8.1,5.5c-6.9,1.9-14.1-1.7-16.7-8.4c-2.5-5.9-2.3-12.7,0.6-18.5
		c3.5-6.9,11.8-9.7,18.7-6.2c1.4,0.7,2.6,1.6,3.7,2.7c0.5,0.4,0.9,0.9,1.6,1.7L213.2,219.9z M213.3,249.3c0-2.3,0-4.7,0-7
		c0-0.6-0.1-1.3-0.4-1.8c-2.5-3.6-6.6-5.6-11-5.4c-3.9,0-7.5,2.3-9.2,5.9c-1.9,3.6-2.5,7.7-1.7,11.7c0.9,4.7,2.9,8.6,7.7,10.1
		c5,1.6,9.3,0.1,13-3.4c1.1-0.9,1.7-2.3,1.6-3.8C213.2,253.4,213.3,251.3,213.3,249.3L213.3,249.3z"/>
	<path class="st0" d="M291.5,249c-0.1,7.6-3.9,13.9-9.9,16.4c-8,3.4-17.3-0.3-20.7-8.3c-0.5-1.2-0.9-2.6-1.1-3.9
		c-1-6-0.2-11.6,3.9-16.3c4.4-5.1,10.1-6.2,16.3-4.6s9.6,6.3,11,12.4C291.2,246.1,291.3,247.6,291.5,249L291.5,249z M287.5,249.6
		c0.1-3.1-0.7-6.2-2.2-8.9c-3.1-5.5-10.1-7.4-15.6-4.2c-1.6,0.9-3,2.3-4,3.9c-3.4,5.6-3.3,12.6,0.3,18.1c3.5,5.2,10.6,6.6,15.8,3.1
		c1.3-0.8,2.3-1.9,3.2-3.2C286.5,255.6,287.4,252.6,287.5,249.6L287.5,249.6z"/>
	<path class="st0" d="M222.9,249.1c0.1-8.2,4.5-14.8,11.2-16.8c8.3-2.7,17.2,1.9,19.9,10.3c0.2,0.7,0.4,1.4,0.5,2.2
		c1.1,5.8,0.4,11.3-3.4,16.1c-4.3,5.3-10,6.8-16.5,5.2s-9.9-6.4-11.3-12.7C223.2,251.9,223.1,250.5,222.9,249.1L222.9,249.1z
		 M226.9,249c-0.1,3.3,0.8,6.6,2.7,9.4c3.5,5.2,10.6,6.5,15.8,3c1-0.7,1.9-1.5,2.7-2.5c4-5.2,4.1-13.7,0.3-19
		c-3.6-5.2-10.7-6.5-15.9-2.9c-1.2,0.9-2.3,1.9-3.1,3.2C227.7,242.8,226.8,245.9,226.9,249L226.9,249z"/>
	<path class="st0" d="M47.6,154.6h7.1v45.6h-7.1V154.6z"/>
	<path class="st0" d="M141.4,200.2h-7.3v-32.9h7v4.4c3.2-3.1,6.4-5.4,10.8-5.4v7c-3.1-0.4-6.3,0.4-8.8,2.4c-1.1,0.8-1.8,2.1-1.7,3.4
		C141.5,186.1,141.4,193,141.4,200.2L141.4,200.2z"/>
	<path class="st0" d="M139.1,232.6h3.4v2.2v19.9c0,0,3.1,9.3,9.8,8.4c3-0.4,5.8-1.8,7.8-4c0.7-0.8,1.2-1.9,1.2-3
		c0.1-7.1,0.1-14.2,0.1-21.2v-2.2h3.5v33h-3.4V261c-1.1,0.9-1.8,1.4-2.5,2c-2.8,2.3-6.3,3.5-9.9,3.5c-6.3,0-9.9-3-10.1-9.4
		c-0.3-8-0.1-16.1-0.1-24.1C138.8,232.9,139,232.8,139.1,232.6L139.1,232.6z"/>
	<path class="st0" d="M185.2,261.8l1.2,2.5c-2.2,2.2-5.6,2.9-8.5,1.7c-2.8-1.2-3.6-3.6-3.6-6.4c0-7.2,0-14.4,0-21.6v-2.3h-5.4v-3.2
		h5.4v-9.1h3.6c0,2.4,0.1,4.9,0,7.3c-0.1,1.4,0.4,1.9,1.8,1.8c1.6-0.1,3.2,0,5,0v3.2h-6.7V258C177.9,263.1,180.5,264.6,185.2,261.8
		L185.2,261.8z"/>
	<path class="st0" d="M297.6,232.6h3.5v5.3c3.2-3.5,6.4-6.1,11.1-6v3.8c-3.8-0.3-6.9,1.2-9.6,3.8c-1.1,1-1.6,2.3-1.6,3.8
		c0.1,7.4,0,14.8,0,22.4h-3.5L297.6,232.6z"/>
</g>
</svg>
