<?xml version="1.0" encoding="utf-8"?>
<!-- Generator: Adobe Illustrator 22.0.1, SVG Export Plug-In . SVG Version: 6.00 Build 0)  -->
<svg version="1.1" id="Livello_1" xmlns="http://www.w3.org/2000/svg" xmlns:xlink="http://www.w3.org/1999/xlink" x="0px" y="0px"
	 viewBox="0 0 400 127" style="enable-background:new 0 0 400 127;" xml:space="preserve">
<title>designit</title>
<g>
	<g transform="translate(0 97.578)">
		<path d="M85.7,6.9c-4,0-7.3,3.4-7.3,7.6s3.3,7.6,7.3,7.6s7.3-3.4,7.3-7.6S89.8,6.9,85.7,6.9z M85.7,18.5c-2.1,0-3.7-1.8-3.7-4
			s1.7-4,3.7-4c2.1,0,3.7,1.8,3.7,4C89.5,16.7,87.8,18.5,85.7,18.5z M39.7,7.3H37c-0.2,0-0.5,0.2-0.6,0.4l-2.2,7l-3.8-7.5
			C30.3,7,30,6.9,29.8,6.9h-0.3c-0.2,0-0.5,0.1-0.6,0.3l-3.8,7.5l-2.2-7c-0.1-0.2-0.3-0.4-0.6-0.4h-2.7c-0.3,0-0.6,0.3-0.4,0.6
			l4.4,13.8c0.1,0.2,0.3,0.4,0.6,0.4h0.4c0.2,0,0.5-0.1,0.6-0.3l4.5-8.8l4.5,8.8c0.1,0.2,0.4,0.3,0.6,0.3h0.4c0.2,0,0.5-0.2,0.6-0.4
			L40.2,8C40.2,7.6,40,7.3,39.7,7.3L39.7,7.3z M46,7.3h-2.7c-0.3,0-0.6,0.3-0.6,0.6l0,0V21c0,0.3,0.3,0.6,0.6,0.6l0,0H46
			c0.3,0,0.6-0.3,0.6-0.6l0,0V8C46.6,7.6,46.4,7.3,46,7.3L46,7.3z M57.9,6.9c-1.9,0-3.6,0.8-4.8,2.1l-0.5-1.3
			c-0.1-0.2-0.3-0.4-0.6-0.4h-1.2c-0.3,0-0.6,0.3-0.6,0.6l0,0v20.8c0,0.3,0.3,0.6,0.6,0.6l0,0h2.7c0.3,0,0.6-0.3,0.6-0.6l0,0v-7.2
			c1.2,0.4,2.4,0.6,3.7,0.6c3.8,0,6.9-3.4,6.9-7.6C64.8,10.3,61.7,6.9,57.9,6.9z M57.2,18.5c-1.1,0-2.2-0.3-3-0.8v-5.5
			c0.6-1.1,1.8-1.8,3-1.8c2,0,3.7,1.8,3.7,4C60.8,16.7,59.2,18.5,57.2,18.5z M74.9,6.9c-2.6,0-4.2,2.1-4.2,2.1l-0.5-1.3
			c-0.1-0.2-0.3-0.4-0.6-0.4h-1.2c-0.3,0-0.6,0.3-0.6,0.6l0,0V21c0,0.3,0.3,0.6,0.6,0.6l0,0h2.7c0.3,0,0.6-0.3,0.6-0.6l0,0v-9.2
			c1.6-1.9,3.6-1.3,4-1.1c0.4,0.1,0.7-0.1,0.8-0.3c0.1-0.3,0.7-1.7,1-2.1C77.8,7.8,77.4,6.9,74.9,6.9L74.9,6.9z M45.2,0.6
			C44,0.2,42.8,1,42.5,2.1c-0.3,1.2,0.4,2.4,1.5,2.7c1.2,0.3,2.4-0.4,2.7-1.6C47.1,2.1,46.4,0.9,45.2,0.6L45.2,0.6z"/>
		<path d="M13.3,21.7c-0.2,0.1-0.5,0.2-0.8,0.3c-0.3,0-0.5,0-0.8,0c-0.6,0-1.2-0.2-1.5-0.6c-0.4-0.4-0.5-1-0.6-1.5h0
			c-0.4,0.7-1.1,1.3-1.9,1.7C6.9,22,6,22.2,4.9,22.2c-0.8,0-1.5-0.1-2.1-0.4s-1-0.6-1.4-1s-0.7-0.9-0.9-1.5c-0.2-0.5-0.3-1-0.3-1.6
			c0-0.5,0.1-1,0.2-1.5s0.4-1,0.8-1.4s0.9-0.8,1.5-1.1s1.5-0.5,2.4-0.6l4.3-0.3v-1c0-0.3-0.1-0.8-0.1-1.1c-0.1-0.4-0.3-0.8-0.6-1
			S8.2,9.3,7.8,9.2C7.5,9.1,7,9,6.4,9S5.2,9.1,4.8,9.2C4.4,9.3,4,9.5,3.8,9.8c-0.5,0.5-0.7,1-0.7,1.7H0.8c0-0.7,0.1-1.2,0.3-1.7
			S1.6,8.9,2,8.5C2.6,8,3.2,7.6,3.9,7.3C4.7,7,5.5,6.9,6.4,6.9c1.4,0,2.5,0.3,3.3,0.8c0.8,0.6,1.4,1.2,1.7,2
			c0.3,0.7,0.4,1.4,0.4,2.2v7c0,0.3,0.1,0.6,0.2,0.8c0.2,0.1,0.3,0.2,0.6,0.2H13l0.2-0.1v1.9H13.3z M9.6,14.8L5.7,15
			c-0.3,0-0.7,0.1-1.1,0.2c-0.3,0.1-0.7,0.3-1,0.5s-0.5,0.5-0.8,0.8c-0.2,0.3-0.3,0.7-0.3,1.2c0,0.6,0.2,1.2,0.6,1.7
			s1.2,0.8,2.1,0.8c0.5,0,1.1-0.1,1.6-0.3c0.5-0.2,1-0.5,1.3-0.9c0.4-0.4,0.8-1,0.9-1.5c0.2-0.6,0.3-1.2,0.3-1.7v-0.9L9.6,14.8
			L9.6,14.8z M110.9,17c-0.1,0.8-0.2,1.5-0.5,2.1s-0.7,1.1-1.2,1.6s-1.1,0.9-1.8,1.2c-0.7,0.3-1.5,0.4-2.4,0.4
			c-1.3,0-2.4-0.3-3.2-0.8c-0.8-0.6-1.5-1.2-2-1.9c-0.4-0.6-0.7-1.3-0.9-2.1c-0.2-0.8-0.3-1.7-0.3-2.8s0.1-2,0.3-2.8
			c0.2-0.8,0.5-1.5,0.9-2.1c0.5-0.8,1.2-1.4,2-1.9c0.8-0.6,1.9-0.8,3.2-0.8c0.8,0,1.6,0.1,2.3,0.4c0.7,0.3,1.2,0.6,1.7,1.1
			s0.9,1,1.2,1.6c0.3,0.6,0.5,1.3,0.6,2.1h-2.4c-0.1-0.5-0.2-0.9-0.3-1.3c-0.2-0.3-0.4-0.7-0.7-1c-0.3-0.3-0.6-0.5-1-0.6
			s-0.9-0.2-1.3-0.2c-0.6,0-1,0.1-1.4,0.3s-0.8,0.4-1,0.7c-0.6,0.5-1,1.2-1.1,1.9c-0.2,0.8-0.3,1.7-0.3,2.6c0,0.9,0.1,1.7,0.3,2.6
			c0.2,0.8,0.6,1.5,1.1,1.9c0.3,0.3,0.7,0.5,1,0.7c0.4,0.2,0.8,0.3,1.4,0.3c0.5,0,1-0.1,1.4-0.3s0.8-0.4,1-0.7
			c0.3-0.3,0.5-0.6,0.6-0.9s0.3-0.8,0.3-1.2L110.9,17C110.9,16.9,110.9,17,110.9,17z M124,14.6c0,1.1-0.1,2.2-0.4,3.2
			s-0.8,1.9-1.6,2.7c-0.6,0.5-1.2,0.9-1.9,1.2c-0.8,0.3-1.6,0.5-2.4,0.5c-0.9,0-1.7-0.1-2.4-0.5c-0.7-0.3-1.3-0.7-1.9-1.2
			c-0.8-0.8-1.3-1.7-1.6-2.7c-0.3-1-0.4-2.1-0.4-3.2s0.1-2.2,0.4-3.2s0.8-1.9,1.6-2.7c0.6-0.5,1.2-0.9,1.9-1.2
			c0.8-0.3,1.6-0.5,2.4-0.5c0.9,0,1.7,0.1,2.4,0.5c0.7,0.3,1.3,0.7,1.9,1.2c0.8,0.8,1.3,1.7,1.6,2.7C123.9,12.4,124,13.4,124,14.6z
			 M121.6,14.6c0-0.8-0.1-1.7-0.3-2.5c-0.2-0.7-0.5-1.4-1-2c-0.3-0.3-0.7-0.6-1.1-0.8S118.3,9,117.7,9s-1,0.1-1.5,0.3
			c-0.4,0.2-0.8,0.4-1.1,0.8c-0.5,0.6-0.9,1.3-1,2c-0.2,0.8-0.3,1.6-0.3,2.5c0,0.8,0.1,1.7,0.3,2.5c0.2,0.8,0.6,1.5,1,2
			c0.3,0.3,0.7,0.6,1.1,0.8c0.4,0.2,0.9,0.3,1.5,0.3s1-0.1,1.5-0.3c0.4-0.2,0.8-0.4,1.1-0.8c0.5-0.6,0.9-1.3,1-2
			C121.5,16.3,121.6,15.4,121.6,14.6L121.6,14.6z M143.3,21.8v-9.1c0-0.5-0.1-1-0.1-1.4c-0.1-0.4-0.3-0.8-0.5-1
			c-0.2-0.3-0.5-0.6-0.9-0.7c-0.4-0.2-0.9-0.3-1.4-0.3c-0.4,0-0.8,0.1-1.2,0.3c-0.3,0.1-0.7,0.4-1,0.7c-0.5,0.5-0.8,1.1-1,1.8
			c-0.1,0.7-0.2,1.4-0.2,2.1v7.7h-2.4v-9.1c0-0.5-0.1-1-0.1-1.4c-0.1-0.4-0.2-0.8-0.5-1c-0.2-0.3-0.5-0.6-0.9-0.7
			c-0.4-0.2-0.9-0.3-1.4-0.3s-1,0.1-1.4,0.3s-0.8,0.6-1,0.9c-0.4,0.5-0.6,1.1-0.8,1.7c-0.1,0.6-0.2,1.3-0.2,1.9v7.7H126V7.5h2.1
			l0.2,2.1c0.3-0.8,0.9-1.5,1.7-1.8c0.8-0.4,1.5-0.6,2.4-0.6c1,0,1.9,0.2,2.7,0.7c0.7,0.5,1.3,1.2,1.6,2c0.2-0.5,0.4-0.8,0.8-1.2
			c0.3-0.3,0.7-0.6,1-0.8c0.4-0.2,0.8-0.4,1.2-0.5s0.9-0.1,1.3-0.1c1.6,0,2.8,0.5,3.6,1.5s1.2,2.2,1.2,3.9v9.5h-2.4L143.3,21.8
			L143.3,21.8z M161,14.6c0,1.2-0.2,2.3-0.6,3.5c-0.3,1-0.9,1.9-1.6,2.6c-0.5,0.4-1.1,0.8-1.7,1c-0.6,0.3-1.4,0.4-2.2,0.4
			c-0.4,0-0.8-0.1-1.2-0.1c-0.4-0.1-0.8-0.2-1.2-0.4c-0.3-0.1-0.7-0.4-1-0.6c-0.3-0.3-0.6-0.6-0.8-0.9v7.8h-2.4V7.3h2.1l0.1,1.9
			c0.4-0.7,1-1.2,1.8-1.7c0.8-0.4,1.6-0.6,2.4-0.6c0.9,0,1.7,0.1,2.4,0.4s1.2,0.7,1.7,1.2c0.7,0.7,1.2,1.6,1.5,2.6
			C160.8,12.2,161,13.4,161,14.6L161,14.6z M158.5,14.6c0-0.7-0.1-1.3-0.2-2c-0.1-0.6-0.3-1.2-0.6-1.8s-0.7-1-1.2-1.3
			c-0.6-0.3-1.2-0.5-1.9-0.5c-0.6,0-1,0.1-1.3,0.3s-0.7,0.4-1,0.7c-0.6,0.6-1,1.2-1.2,2s-0.3,1.7-0.3,2.6c0,0.9,0.1,1.8,0.3,2.6
			c0.2,0.8,0.6,1.5,1.2,2c0.3,0.3,0.6,0.5,1,0.7c0.3,0.2,0.8,0.3,1.3,0.3c0.8,0,1.5-0.1,1.9-0.5c0.6-0.3,1-0.8,1.2-1.2
			c0.3-0.6,0.5-1.2,0.6-1.8C158.5,15.9,158.5,15.3,158.5,14.6z M174.7,21.7c-0.2,0.1-0.5,0.2-0.8,0.3c-0.3,0.1-0.5,0.1-0.8,0.1
			c-0.6,0-1.2-0.2-1.5-0.6c-0.4-0.4-0.5-1-0.6-1.5h0c-0.4,0.7-1.1,1.3-1.9,1.7c-0.8,0.4-1.7,0.6-2.8,0.6c-0.8,0-1.5-0.1-2.1-0.4
			c-0.6-0.2-1.1-0.6-1.5-1s-0.7-0.9-0.9-1.5c-0.2-0.5-0.3-1-0.3-1.6c0-0.5,0.1-1,0.2-1.5c0.1-0.5,0.4-1,0.8-1.4
			c0.4-0.4,0.9-0.8,1.5-1.1s1.5-0.5,2.4-0.6l4.3-0.3v-1c0-0.3-0.1-0.8-0.1-1.1c-0.1-0.4-0.3-0.8-0.6-1s-0.6-0.4-0.9-0.6
			c-0.3-0.1-0.8-0.2-1.5-0.2s-1.2,0.1-1.6,0.2c-0.4,0.1-0.8,0.3-1,0.6c-0.5,0.5-0.7,1-0.7,1.7h-2.4c0-0.7,0.1-1.2,0.3-1.7
			s0.5-0.9,0.9-1.3c0.5-0.5,1.2-0.9,1.9-1.2c0.8-0.3,1.6-0.4,2.5-0.4c1.4,0,2.5,0.3,3.3,0.8c0.8,0.6,1.4,1.2,1.7,2
			c0.3,0.7,0.4,1.4,0.4,2.2v7c0,0.3,0.1,0.6,0.2,0.8c0.2,0.1,0.3,0.2,0.6,0.2h0.4l0.2-0.1v1.9C174.5,21.7,174.7,21.7,174.7,21.7z
			 M171,14.8l-3.8,0.2c-0.3,0-0.7,0.1-1.1,0.2c-0.3,0.1-0.7,0.3-1,0.5s-0.5,0.5-0.8,0.8c-0.2,0.3-0.3,0.7-0.3,1.2
			c0,0.6,0.2,1.2,0.6,1.7c0.4,0.5,1.2,0.8,2.1,0.8c0.5,0,1.1-0.1,1.6-0.3c0.5-0.2,1-0.5,1.3-0.9c0.4-0.4,0.8-1,0.9-1.5
			c0.2-0.6,0.3-1.2,0.3-1.7v-0.9L171,14.8L171,14.8z M185.4,21.8v-9.1c0-1.1-0.2-1.9-0.7-2.6c-0.5-0.6-1.2-0.9-2.4-0.9
			c-0.7,0-1.3,0.2-1.8,0.6c-0.5,0.4-1,1-1.2,1.6c-0.3,0.6-0.4,1.2-0.4,1.8c-0.1,0.7-0.1,1.3-0.1,1.9v6.7h-2.4V7.4h2.1l0.2,2.1
			c0.2-0.4,0.4-0.8,0.8-1.1c0.3-0.3,0.7-0.6,1-0.8c0.4-0.2,0.8-0.3,1.2-0.5c0.4-0.1,0.8-0.1,1.2-0.1c1.7,0,2.8,0.5,3.7,1.4
			s1.2,2.2,1.2,3.9v9.5H185.4L185.4,21.8z M194.9,24.7c-0.3,0.9-0.8,1.7-1.4,2.2s-1.4,0.8-2.5,0.8c-0.6,0-1.1-0.1-1.5-0.1
			c-0.3-0.1-0.6-0.1-0.7-0.2v-2.1c0.1,0.1,0.3,0.1,0.5,0.1c0.1,0.1,0.3,0.1,0.6,0.1h0.7c0.5,0,0.9-0.1,1.3-0.3
			c0.3-0.2,0.6-0.6,0.8-1.1l0.9-2.4L188,7.2h2.7l4.2,11.4l4-11.4h2.5L194.9,24.7z"/>
	</g>
	<path d="M16.1,14.5v51.8h15.4c7.8,0,13.3-3.9,16.4-11.6c1.7-4.2,2.5-9.3,2.5-15.2c0-8.1-1.2-14.3-3.8-18.6s-7.5-6.4-15.1-6.4
		C31.5,14.5,16.1,14.5,16.1,14.5z M46.4,2.6c5.6,1.8,10.1,5.2,13.5,10c2.7,3.9,4.6,8.2,5.7,12.8c1,4.6,1.5,8.9,1.5,13.1
		c0,10.5-2.1,19.4-6.4,26.7c-5.7,10-14.5,14.9-26.5,14.9H0V0.8h34.2C39.1,0.9,43.2,1.5,46.4,2.6z M89.3,35.8
		c-2.1,2.1-3.5,5.1-4.1,8.9h26.3c-0.3-3.9-1.7-7-4.1-9.1s-5.5-3.1-9.1-3.1C94.5,32.6,91.4,33.6,89.3,35.8 M112.2,22.6
		c4.1,1.8,7.5,4.7,10.1,8.6c2.4,3.5,3.9,7.5,4.6,12.1c0.4,2.7,0.6,6.5,0.5,11.6H84.8c0.3,6,2.3,10,6.1,12.5c2.4,1.5,5.1,2.2,8.4,2.2
		c3.5,0,6.3-0.8,8.5-2.6c1.8-1.5,2.2-2.3,3.1-5.5h15.6c-0.4,5.1-2.3,8.5-5.7,12.1c-5.3,5.7-12.5,8.5-22,8.5
		c-7.8,0-14.7-2.4-20.6-7.2c-6-4.8-8.9-12.7-8.9-23.5c0-10.2,2.6-17.9,8-23.4c5.4-5.4,12.4-8.1,20.9-8.1
		C103.5,19.8,108.1,20.8,112.2,22.6 M143.9,61.4c0.3,2.7,1,4.6,2.1,5.8c1.9,2,5.5,3,10.6,3c3,0,5.4-0.4,7.2-1.3s2.7-2.2,2.7-4
		c0-1.7-0.7-3-2.1-3.9c-1.5-0.9-6.8-2.4-16-4.6c-6.6-1.7-11.3-3.7-14-6.2c-2.8-2.4-4.1-6-4.1-10.5c0-5.4,2.1-10,6.4-14
		c4.2-3.9,10.2-5.8,17.9-5.8c7.3,0,13.2,1.5,17.9,4.4c4.6,2.9,7.3,8,8,15.2H165c-0.2-1.9-0.8-3.5-1.7-4.7c-1.7-2.1-4.6-3.1-8.6-3.1
		c-3.3,0-5.7,0.5-7.2,1.6c-1.4,1-2.1,2.2-2.1,3.7c0,1.8,0.8,3,2.3,3.8s6.9,2.2,16,4.2c6.1,1.5,10.7,3.6,13.7,6.5s4.5,6.6,4.5,11
		c0,5.8-2.1,10.5-6.4,14.2c-4.4,3.7-11,5.5-20.1,5.5c-9.2,0-16-1.9-20.4-5.8s-6.6-8.9-6.6-14.8L143.9,61.4L143.9,61.4z M241.9,63.5
		c2.4-2.7,3.7-7,3.7-12.9c0-5.5-1.2-9.8-3.5-12.7c-2.4-2.9-5.4-4.4-9.3-4.4c-5.3,0-9,2.5-11,7.5c-1,2.7-1.6,6-1.6,10
		c0,3.4,0.6,6.4,1.7,9.1c2,4.9,5.7,7.4,11.1,7.4C236.5,67.5,239.4,66.2,241.9,63.5 M236.7,21.4c3.7,1.5,6.7,4.4,9,8.4v-8.4h15V77
		c0,7.5-1.2,13.3-3.8,17.1c-4.4,6.6-12.7,9.9-25.1,9.9c-7.5,0-13.6-1.5-18.3-4.4s-7.3-7.3-7.8-13.1h16.7c0.4,1.8,1.1,3,2.1,3.9
		c1.7,1.4,4.4,2.1,8.3,2.1c5.5,0,9.2-1.9,11.1-5.5c1.2-2.4,1.9-6.3,1.9-11.8v-3.7c-1.5,2.5-3,4.4-4.8,5.6c-3,2.4-7,3.5-11.8,3.5
		c-7.5,0-13.5-2.6-18-7.9s-6.7-12.5-6.7-21.5c0-8.7,2.1-16,6.5-21.9c4.3-6,10.4-8.9,18.3-8.9C232,20.1,234.6,20.6,236.7,21.4
		 M312.7,24.8c3.8,3.2,5.7,8.4,5.7,15.8V80h-15.7V44.4c0-3-0.4-5.5-1.2-7.1c-1.5-3-4.4-4.5-8.6-4.5c-5.2,0-8.7,2.1-10.6,6.6
		c-1,2.4-1.5,5.3-1.5,8.9V80h-15.3V21.5h14.7v8.6c1.9-3,3.8-5.2,5.5-6.5c3.1-2.4,7.1-3.5,12-3.5C304,20.1,308.9,21.7,312.7,24.8
		 M324.1,22h15.6v58h-15.6V22z M339.6,14.5h-15.5V0.4h15.5V14.5z M185.5,22H201v58h-15.5V22z M201,14.5h-15.5V0.4H201V14.5z
		 M344.1,32.7V22h8.1V5.5h15.2V22h9.5v10.7h-9.5v31.1c0,2.4,0.3,3.9,0.9,4.5s2.5,0.9,5.6,0.9c0.5,0,1,0,1.5-0.1c0.5,0,1-0.1,1.5-0.1
		v11.5l-7.3,0.3c-7.3,0.2-12.2-1-14.8-3.8c-1.7-1.7-2.6-4.4-2.6-8.2V32.7H344.1L344.1,32.7z M390.2,7c-0.4-0.1-1-0.2-1.8-0.2h-0.7
		v3.4h1.2c0.7,0,1.2-0.1,1.7-0.4s0.6-0.8,0.6-1.4C391.1,7.7,390.8,7.2,390.2,7z M384.6,16.3V4.7h5.7c1,0.1,1.7,0.3,2.3,0.6
		c1,0.6,1.6,1.5,1.6,2.8c0,1-0.3,1.7-0.8,2.1c-0.6,0.5-1.2,0.7-2,0.8c0.7,0.1,1.3,0.3,1.7,0.7c0.7,0.6,1,1.5,1,2.6v1
		c0,0.1,0,0.2,0.1,0.3c0,0.1,0,0.2,0.1,0.3l0.1,0.3h-2.9c-0.1-0.3-0.1-0.9-0.2-1.6c0-0.7-0.1-1.2-0.2-1.5c-0.1-0.4-0.4-0.7-0.8-0.8
		c-0.3-0.1-0.6-0.2-1-0.2l-0.6-0.1h-0.6v4.1L384.6,16.3L384.6,16.3z M383,4.4c-1.7,1.7-2.5,3.7-2.5,6.1s0.8,4.5,2.6,6.2
		c1.7,1.7,3.7,2.6,6.1,2.6s4.4-0.9,6.1-2.6s2.6-3.8,2.6-6.2s-0.8-4.4-2.5-6.1s-3.7-2.6-6.2-2.6C386.8,1.8,384.8,2.6,383,4.4z
		 M396.5,18.1c-2,2-4.5,3-7.3,3c-3,0-5.5-1-7.5-3s-3-4.5-3-7.5S379.8,5,382,3c2.1-1.9,4.5-2.8,7.2-2.8c2.9,0,5.3,1,7.4,3.1
		c2,2,3.1,4.5,3.1,7.4C399.7,13.5,398.7,16,396.5,18.1L396.5,18.1z"/>
</g>
</svg>
