<?xml version="1.0" encoding="utf-8"?>
<!-- Generator: Adobe Illustrator 22.0.1, SVG Export Plug-In . SVG Version: 6.00 Build 0)  -->
<svg version="1.1" id="Livello_1" xmlns="http://www.w3.org/2000/svg" xmlns:xlink="http://www.w3.org/1999/xlink" x="0px" y="0px"
	 viewBox="0 0 400 43" style="enable-background:new 0 0 400 43;" xml:space="preserve">
<style type="text/css">
	.st0{fill:#FFFFFF;}
</style>
<title>hearstcorp</title>
<g>
	<path class="st0" d="M0.3,20V9.6c0-0.7,0.1-1,1-1c2.2,0.1,4.4,0.1,6.7,0c0.7,0,0.9,0.2,0.9,0.9c-0.1,2,0,4,0,6
		c0,0.6,0.2,0.9,0.8,0.8c0.9-0.1,1.8-0.1,2.7,0c0.7,0,0.9-0.2,0.9-0.8v-6c0-0.7,0.2-0.9,0.9-0.9c2.2,0.1,4.4,0,6.7,0
		c0.7,0,0.9,0.1,0.9,0.9v21c0,0.6-0.2,0.9-0.8,0.8c-2.3,0-4.5-0.1-6.7,0c-0.7,0-0.9-0.3-0.9-0.9v-6.7c0-0.7-0.3-1.1-1-1
		c-0.8,0.1-1.7,0.1-2.5,0c-0.5,0-0.7,0.2-0.7,0.7v6.9c0,0.7-0.2,0.9-0.9,0.9c-2.3-0.1-4.5,0-6.8,0c-0.7,0-0.8-0.2-0.8-0.9
		C0.3,27,0.3,23.4,0.3,20L0.3,20z M122.9,19.7l0.8,0.3c1.7,0.4,2.7,1.5,3,3.2c0.3,1.8,0.5,3.7,0.8,5.5c0.1,0.7,0.3,1.3,0.4,1.9
		c0.1,0.5,0,0.7-0.5,0.7c-2.5,0-4.9,0-7.5-0.1c-0.2,0-0.6-0.4-0.7-0.7c-0.3-1.6-0.5-3.2-0.8-4.8c-0.1-0.5-0.2-0.9-0.3-1.4
		c-0.4-1.1-1.7-1.7-2.7-1.3c-0.2,0.1-0.4,0.5-0.4,0.8c0,2.1-0.1,4.3,0,6.5c0,0.8-0.2,1-1,1c-2.2-0.1-4.4,0-6.7,0
		c-0.7,0-0.9-0.1-0.9-0.9v-21c0-0.6,0.2-0.9,0.8-0.8c4.3,0,8.7-0.1,13,0.1c1.4,0.1,2.9,0.3,4.2,0.9c2.4,0.9,2.9,3.1,2.8,5.2
		c-0.1,2.4-1.5,3.9-3.7,4.6C123.5,19.4,123.3,19.6,122.9,19.7L122.9,19.7z M115.1,15.8v1.7c0,0.2,0.1,0.5,0.3,0.5
		c1.1,0.5,3.2-0.5,3.5-1.7c0.5-1.7-0.5-2.7-2.4-2.9c-1.4-0.1-1.4-0.1-1.4,1.3V15.8L115.1,15.8z M93.7,31.5h-8.3
		c-0.7,0-0.9-0.2-1.1-0.9c-0.1-0.7-0.3-1.4-0.4-2.1c-0.1-0.5-0.3-0.7-0.9-0.7c-1.8,0.1-3.6,0-5.3,0c-0.5,0-0.8,0.1-0.9,0.7
		c-0.1,0.9-0.3,1.7-0.6,2.5c-0.1,0.2-0.4,0.5-0.6,0.5h-7.7c-0.1,0-0.1-0.1-0.2-0.1c0.2-0.7,0.5-1.4,0.7-2.1
		c2.1-6.5,4.3-13.1,6.5-19.6C75,8.8,75.3,8.6,76,8.6h9.8c0.5,0,0.8,0.1,1,0.7c2.3,7.2,4.5,14.5,6.8,21.7
		C93.7,31.1,93.7,31.2,93.7,31.5z M82.5,22.2c-0.7-3-1.3-5.9-1.9-8.9h-0.3c-0.7,2.9-1.3,5.9-2.1,8.9C78.3,22.2,82.5,22.2,82.5,22.2z
		 M145,24.2h3.3c0.4,0,0.7,0.1,0.7,0.6c0.1,0.9,0.4,1.5,1.3,1.7c0.9,0.2,1.9,0.3,2.7-0.5c0.9-0.9,0.5-2.5-0.7-2.9
		c-1.5-0.5-3-0.9-4.5-1.3c-1.1-0.3-2.1-0.7-3.1-1.1c-4.6-2-4.1-8.3-0.9-10.5c1.7-1.1,3.5-1.7,5.5-1.8c2.3-0.2,4.5-0.3,6.7,0.4
		c2.1,0.7,4,1.7,4.5,4.1c0.4,2,0.7,1.9-1.4,1.9h-4.9c-0.6,0-0.9-0.1-1.1-0.8c-0.3-1-1.3-1.4-2.5-1.1c-0.9,0.2-1.4,0.9-1.3,1.8
		c0.1,0.8,0.6,1.1,1.3,1.3c1.4,0.4,2.9,0.7,4.2,1.1c1.4,0.5,2.8,0.9,4.1,1.6c2.4,1.2,3,3.6,2.7,5.9c-0.5,3.5-2.7,5.5-5.9,6.4
		c-3.8,1-7.5,0.9-11.2-0.7c-2.3-1.1-3.4-3-3.5-5.5c0-0.5,0.2-0.7,0.7-0.7C142.8,24.2,143.9,24.2,145,24.2L145,24.2z M37.7,20V9.5
		c0-0.7,0.2-0.9,0.9-0.9h15.2c0.7,0,0.9,0.2,0.9,0.9c-0.1,1.3-0.1,2.6,0,3.9c0,0.6-0.2,0.9-0.8,0.8h-6.9c-0.7,0-0.9,0.2-0.9,0.9
		c0,2.2-0.1,1.8,1.8,1.8h5.3c0.7,0,0.9,0.2,0.9,0.9c-0.1,1.3-0.1,2.7,0,4c0,0.6-0.2,0.8-0.8,0.8h-6.3c-0.7,0-1,0.2-1,1
		c0.1,2.3-0.3,2,2,2h6c0.6,0,0.9,0.2,0.8,0.8c-0.1,1.3,0,2.7,0,4.1c0,0.6-0.2,0.8-0.8,0.8H38.5c-0.7,0-0.8-0.3-0.8-0.9L37.7,20
		L37.7,20z M182.6,8.6h8.9c0.7,0,0.9,0.2,0.9,0.9c-0.1,1.4,0,2.8,0,4.1c0,0.5-0.2,0.7-0.7,0.7h-3.9c-0.7,0-0.9,0.3-0.9,0.9v14.9
		c0,0.8-0.3,1.1-1.1,1c-2.2-0.1-4.5-0.1-6.7,0c-0.7,0-1-0.2-1-1c0.1-4.9,0-9.9,0.1-14.8c0-0.8-0.2-1.1-1-1.1c-1.2,0.1-2.5,0-3.7,0
		c-0.6,0-0.8-0.2-0.8-0.8c0-1.4,0.1-2.8,0-4.1c0-0.7,0.2-0.9,0.9-0.9C176.6,8.7,179.6,8.6,182.6,8.6z M263.8,13
		c-1,0.2-1.8,0.4-2.6,0.5c-0.3,0.1-0.5,0.1-0.7,0.1c-0.3-0.1-0.5-0.3-0.7-0.4c0.2-0.2,0.3-0.5,0.6-0.6c0.9-0.2,1.9-0.4,2.8-0.5
		c0.7-0.1,1-0.4,1.2-1.1c0.5-1.7,1.1-3.4,1.6-5.1c0.2-0.5,0.5-0.9,1.1-1c1.3-0.2,1.9,0.4,1.5,1.7c-0.4,1.3-0.8,2.7-1.2,4.1
		c-0.1,0.3-0.1,0.5-0.2,0.9c1.1-0.1,2.1-0.2,3.1-0.3c0.9,0,1.7,0,2.5,0.1c2.3,0.5,3.4,1.9,3.2,4.3c-0.5,5.5-2.9,10.2-7.3,13.8
		c-2,1.7-4.4,2.5-7.1,2.1c-0.5-0.1-0.7,0.1-0.8,0.5c-0.7,2.3-1.4,4.5-2.1,6.8c-0.3,1.1,0.1,1.7,1.1,2l2.2,0.6
		c0.3,0.1,0.5,0.3,0.8,0.4v0.3c-0.4,0.1-0.7,0.3-1.1,0.2c-2.6-0.1-5.2-0.2-7.8-0.3c-0.5,0-1.1,0-1.6-0.1c-0.2,0-0.3-0.2-0.5-0.3
		c0.1-0.1,0.3-0.4,0.4-0.5c0.2-0.1,0.5-0.1,0.7-0.1c1.5-0.1,2.3-0.9,2.8-2.3c1.8-5.7,3.6-11.6,5.4-17.3c0.8-2.5,1.5-4.9,2.3-7.4
		C263.6,13.8,263.6,13.5,263.8,13L263.8,13z M262.2,27.6c0,1.7,0.4,2.3,1.3,2.6c0.9,0.2,1.8,0.1,2.6-0.4c0.6-0.5,1.2-1,1.7-1.6
		c2.7-3.5,4.2-7.5,5-11.8c0.3-1.9-0.7-3.3-2.5-3.8c-0.7-0.1-1.3-0.2-2-0.2c-1.5,0.1-1.7,0.2-2.1,1.7L263,24.8
		C262.7,25.9,262.4,27,262.2,27.6L262.2,27.6z M398.7,25.8c-0.1,0.3-0.1,0.7-0.3,0.9c-1.5,2.1-3.4,3.7-5.8,4.5
		c-0.6,0.2-1.3,0.3-1.9,0.3c-0.8,0-1.1-0.3-0.9-1.1c0.1-0.7,0.5-1.4,0.7-2c1.9-4,3.7-7.9,5.5-12c0.3-0.7,0.5-1.5,0.6-2.3
		c0.1-1.1-0.7-1.7-1.7-1.3c-0.6,0.2-1.2,0.5-1.6,1c-1.6,2-3.1,4-4.6,6.1c-2.2,3.3-4.3,6.7-5.9,10.3c-0.5,1.1-0.9,1.3-1.7,1.1
		c-0.5-0.1-0.9-0.3-0.7-0.9c0.1-0.5,0.2-0.9,0.3-1.3c1.7-4.5,3.3-9,5-13.5c0.1-0.3,0.3-0.7,0.3-1c0-0.3,0-0.8-0.2-1
		c-0.2-0.1-0.7-0.1-1,0c-0.6,0.4-1.1,0.9-1.6,1.4c-0.6,0.6-1.1,1.3-1.7,1.9c-0.1,0.1-0.3,0.1-0.5,0.2c-0.1-0.2-0.1-0.4-0.1-0.7
		c0-0.1,0.1-0.2,0.1-0.3c1.3-1.8,2.7-3.5,4.7-4.7c0.5-0.3,0.9-0.5,1.5-0.5c0.9-0.2,1.6,0.3,1.6,1.2s0,1.8-0.3,2.6
		c-0.7,2.1-1.6,4.3-2.4,6.3c-0.1,0.3-0.2,0.7-0.3,1.1c0.1,0.1,0.1,0.1,0.3,0.1c0.3-0.4,0.5-0.8,0.9-1.2c1.5-2.2,2.8-4.5,4.4-6.7
		c0.9-1.2,2.2-2.1,3.4-2.9c0.5-0.4,1.4-0.5,2.1-0.5c2.3,0.1,3.4,1.6,2.7,3.8c-0.5,1.7-1.3,3.3-2.1,5c-1.2,2.6-2.5,5.1-3.7,7.7
		c-0.1,0.3,0,0.7,0,1c0.3,0,0.8,0.1,1-0.1c1-0.8,1.9-1.7,2.9-2.5c0.3-0.3,0.6-0.5,0.9-0.7C398.5,25.7,398.6,25.8,398.7,25.8
		L398.7,25.8z M324.6,23.2c-0.4,0.4-0.7,0.8-1.1,1.2c-2,2.2-4.1,4.3-6.5,5.9c-1.3,0.8-2.5,1.5-4,1.6c-1.3,0.1-2.1-0.6-2.3-1.9
		c-0.2-1.5,0.1-2.9,0.7-4.3c2.4-5.1,6.1-8.7,11.3-11.1c1.3-0.6,2.8-0.7,4.3-0.5c1.4,0.2,1.6,0.1,2.3-1.1c0.5-1,1.2-1.3,2.3-1.1
		c0.8,0.1,1.1,0.4,0.7,1.2c-0.6,1.5-1.3,2.9-1.9,4.3c-1.7,3.6-3.3,7.2-4.9,10.8c-0.1,0.3-0.1,0.7-0.1,0.9c0.3,0,0.7,0.1,1-0.1
		c0.9-0.6,1.7-1.2,2.5-1.9c0.7-0.7,1.4-1.5,2.1-2.2c0.2-0.2,0.5-0.2,0.8-0.3c-0.1,0.3,0,0.7-0.1,0.9c-2,2.5-4.3,4.7-7.1,6.1
		c-0.5,0.3-1.1,0.4-1.7,0.4c-0.8,0.1-1.3-0.5-0.9-1.2c0.7-1.8,1.4-3.5,2.1-5.3c0.3-0.7,0.7-1.3,1-2.1
		C324.7,23.3,324.7,23.2,324.6,23.2L324.6,23.2z M324.9,15.1c-0.5,0.2-1.7,0.5-2.7,1.1c-3.3,1.9-5.9,4.7-7.8,8.1
		c-0.5,0.8-0.7,1.8-0.9,2.7c-0.3,1.3,0.5,2.2,1.7,2c0.9-0.1,1.9-0.5,2.7-1c3.5-2.3,6.3-5.1,8.5-8.7c0.3-0.5,0.6-1.2,0.8-1.8
		C327.7,16,327,15.1,324.9,15.1L324.9,15.1z M293.2,18.2c-0.1,4.5-1.7,8.3-5,11.4c-1.4,1.3-3,2.3-5,2.3c-1.7,0.1-2.7-0.7-3.5-2.1
		c-0.7-1.6-0.9-3.3-0.9-5.1c0.1-3.9,1.5-7.5,4.2-10.4c1.5-1.5,3.1-2.8,5.3-3.1c1.6-0.3,2.8,0.3,3.7,1.7
		C293,14.6,293.2,16.4,293.2,18.2L293.2,18.2z M280.9,28.3c0,1,0.1,2,1.1,2.5c1,0.5,2,0.3,2.7-0.5c0.8-0.8,1.5-1.7,2.1-2.7
		c1.8-2.9,2.9-6.1,3.7-9.5c0.3-1.4,0.7-2.8,0.3-4.3c-0.5-1.7-1.7-2.3-3.2-1.3c-0.9,0.6-1.7,1.4-2.3,2.3
		C282.9,19,281.5,23.6,280.9,28.3L280.9,28.3z M222.7,25.1c0.2-5.3,2.2-9.7,6.6-12.8c1.1-0.7,2.3-1.2,3.6-1.2c1.5,0,2.5,0.9,3.2,2.2
		c0.8,1.7,1.1,3.5,0.9,5.4c-0.3,4.6-2.1,8.5-5.7,11.4c-1.3,1-2.7,1.7-4.3,1.7c-1.7,0.1-2.8-0.6-3.5-2.1
		C222.8,28.3,222.7,26.8,222.7,25.1z M224.7,28.2c0,1.2,0.1,2.1,1.2,2.6c1.1,0.5,2,0.2,2.8-0.6c0.7-0.7,1.5-1.6,2-2.5
		c2-3.3,3.2-6.9,4.1-10.6c0.3-1.2,0.4-2.5-0.1-3.7c-0.5-1.1-1.5-1.6-2.6-1.1c-0.5,0.2-1.1,0.5-1.5,0.9c-1,1.3-2.1,2.7-2.8,4.1
		C226.2,20.9,225.2,24.6,224.7,28.2L224.7,28.2z M362.6,25.2c0.1-5.2,2.1-9.5,6.5-12.6c0.6-0.4,1.2-0.7,1.9-0.9
		c2.5-0.9,4.6,0,5.4,2.6c1.1,3.6,0.7,7.1-0.9,10.5c-1.3,2.7-3.1,5.1-5.8,6.5c-0.9,0.4-1.9,0.7-2.8,0.7c-1.6,0.2-2.7-0.6-3.4-2
		C362.9,28.7,362.6,27.3,362.6,25.2z M374.9,15.4c-0.1-1.3-0.1-2.5-1.3-3.1c-1.3-0.5-2.3,0.1-3.1,1c-0.7,0.7-1.3,1.5-1.8,2.3
		c-1.4,2.3-2.4,4.9-3,7.5c-0.5,1.8-0.8,3.7-0.9,5.5c-0.1,1.9,1.7,2.8,3.3,1.9c0.6-0.4,1.3-0.9,1.6-1.5c1-1.5,1.9-3.1,2.7-4.8
		C373.6,21.5,374.5,18.6,374.9,15.4L374.9,15.4z M302.8,23.3l0.8-1.4c1.3-2.3,2.7-4.7,4.1-7c0.6-1,1.4-1.9,2.2-2.7
		c0.4-0.4,1-0.7,1.5-0.9c1.3-0.3,2.1,0.3,2.2,1.6c0,0.7,0,1.5-0.2,2.2c-0.1,0.5-0.5,1-0.9,1.3c-0.9,0.5-1.5,0.1-1.7-0.9
		c-0.1-0.4-0.3-0.8-0.4-1.2c-0.4,0.3-0.9,0.4-1.1,0.7c-1.2,1.6-2.4,3.2-3.3,4.9c-2,3.6-3.9,7.3-5.9,10.9c-0.2,0.3-0.6,0.7-0.9,0.7
		c-0.9,0.1-1.3-0.3-1-1.2c1.3-4.5,2.5-9.1,3.7-13.6c0.1-0.5,0.5-1.2-0.1-1.6c-0.6-0.3-1.1,0.3-1.4,0.7c-0.7,0.9-1.4,1.8-2.1,2.7
		c-0.3,0.4-0.7,0.7-1,1.1c-0.1,0-0.2-0.1-0.3-0.1c0-0.3-0.1-0.7,0-0.9c1.5-2.6,3.3-5.1,5.8-6.9c0.2-0.1,0.5-0.3,0.7-0.3
		c0.9-0.3,1.7,0.1,1.6,1.1c-0.1,1.6-0.3,3.2-0.7,4.7c-0.4,1.8-1,3.6-1.5,5.4c-0.1,0.3-0.1,0.5-0.2,0.7
		C302.7,23.3,302.8,23.3,302.8,23.3L302.8,23.3z M246.6,23.3c0.2-0.3,0.4-0.6,0.5-0.9c1.5-2.6,3-5.2,4.5-7.8
		c0.5-0.9,1.3-1.7,2.1-2.5c0.7-0.7,1.5-1.2,2.6-0.8c0.4,0.1,0.9,0.6,1,0.9c0.1,1,0.1,2-0.1,3c-0.1,0.4-0.5,0.9-0.9,1.1
		c-0.9,0.5-1.5,0.1-1.6-0.9c-0.1-0.2,0-0.4-0.1-0.5c-0.1-0.3-0.1-0.6-0.3-0.7c-0.2-0.1-0.6,0.1-0.7,0.3c-0.7,0.7-1.4,1.5-1.9,2.3
		c-2.4,4.2-4.8,8.5-7.2,12.8c-0.3,0.4-0.5,0.9-0.7,1.3c-0.3,0.9-0.9,0.9-1.6,0.7c-0.7-0.3-0.5-0.9-0.4-1.4c1.2-4.5,2.5-8.9,3.7-13.4
		c0.1-0.5,0.5-1.2-0.1-1.6c-0.7-0.3-1.1,0.3-1.5,0.7c-0.8,0.9-1.5,1.9-2.3,2.9c-0.3,0.3-0.5,0.5-0.8,0.9c-0.1,0-0.2-0.1-0.3-0.1
		c0-0.3-0.1-0.7,0-0.9c1.5-2.6,3.3-5,5.7-6.9c0.3-0.2,0.5-0.3,0.9-0.5c0.9-0.3,1.7,0.1,1.5,1.1c-0.3,2.1-0.6,4.3-1.1,6.5
		c-0.3,1.3-0.7,2.5-1.1,3.7c-0.1,0.2-0.1,0.5-0.2,0.7C246.5,23.2,246.5,23.3,246.6,23.3L246.6,23.3z M340.9,13.6h-2.6
		c-0.5,0-0.9,0-0.9-0.7c0-0.7,0.3-0.8,0.9-0.8c0.9,0,1.7,0.1,2.5,0c0.3,0,0.6-0.3,0.7-0.5c0.5-1.3,1-2.5,1.5-3.8
		c0.3-0.8,1.8-1.2,2.4-0.6c0.2,0.2,0.2,0.7,0.1,0.9c-0.3,1.1-0.7,2.1-1.1,3.1c-0.1,0.3-0.2,0.5-0.3,0.9h3.5c0.5,0,0.9,0.2,0.8,0.8
		c0,0.5-0.2,0.7-0.7,0.7h-3.3c-0.5,0-0.7,0.1-0.9,0.6c-1.6,4.3-3.2,8.5-4.8,12.9c-0.1,0.3-0.1,0.8,0,0.9c0.2,0.2,0.7,0.2,0.9,0.1
		c0.7-0.3,1.3-0.7,1.9-1.3c0.8-0.8,1.5-1.7,2.3-2.5c0.2-0.2,0.5-0.4,0.7-0.6c0.1,0.1,0.2,0.1,0.3,0.2c-0.1,0.4-0.1,0.8-0.3,1.1
		c-2,2.9-4.5,5.1-7.5,6.7c-0.1,0.1-0.3,0.1-0.4,0.1c-0.5-0.1-1.2,0.1-1.5-0.2c-0.3-0.2-0.2-0.9-0.1-1.4c0.4-1.3,0.9-2.7,1.4-4
		c1.4-3.9,2.8-7.7,4.1-11.7C340.7,14.2,340.8,14,340.9,13.6L340.9,13.6z M357.9,26.3c-0.1,0.3-0.1,0.5-0.3,0.7
		c-2.1,2.1-4.3,3.9-7.2,4.7c-0.1,0-0.1,0.1-0.1,0.1c-0.7,0.1-1.5,0.3-1.8-0.4c-0.2-0.5-0.1-1.3,0.1-1.8c1.9-3.9,3.9-7.9,5.7-11.8
		c0.3-0.7,0.7-1.5,0.9-2.3c0.1-0.3-0.1-0.7-0.1-1.1c-0.3,0.1-0.7,0.1-0.9,0.3c-0.8,0.5-1.6,1.2-2.4,1.7c-0.3,0.2-0.5,0.3-0.7,0.5
		c-0.2,0.1-0.4,0-0.7,0c0-0.2,0-0.5,0.1-0.7c2-1.8,3.9-3.7,6.5-4.8c0.6-0.3,1.2-0.5,1.8,0c0.5,0.5,0.5,1.2,0.3,1.9
		c-0.7,1.8-1.5,3.5-2.3,5.3l-4.2,8.8c-0.1,0.1-0.2,0.3-0.2,0.5c0,0.3-0.1,0.7,0.1,0.9c0.1,0.1,0.7,0.1,0.9,0.1
		c1.1-0.7,2.1-1.4,3.2-2.1c0.4-0.3,0.7-0.5,1.1-0.7C357.8,26.2,357.9,26.2,357.9,26.3L357.9,26.3z M206.1,26.8
		c0.5-4.9,2.2-9.5,5.9-13.3c1.8-1.8,4.1-2.7,6.6-2.2c0.3,0.1,0.7,0.1,1,0.3c1.1,0.4,1.5,1.4,1.2,2.3c-0.3,0.7-1.4,1.1-2.3,0.5
		c-0.6-0.3-1.2-0.8-1.7-1.3c-1.1-1.1-1.9-1.1-2.9,0c-0.9,1-1.6,2.2-2.2,3.4c-1.3,2.5-2.1,5.2-2.7,8c-0.1,0.8-0.1,1.7,0.1,2.5
		c0.3,1.6,1.7,2.3,3.2,1.7c0.7-0.3,1.4-0.9,2.1-1.4c0.4-0.3,0.7-0.9,1.1-1.3c0.1-0.1,0.4-0.1,0.6-0.1c0.1,0.1,0.2,0.4,0.1,0.5
		c-1.5,2.1-3.2,4.1-5.7,5.1c-2.1,0.8-3.7-0.2-4.1-2.6C206.3,28.3,206.2,27.5,206.1,26.8L206.1,26.8z M358.4,4.2c-1,0-2-1-2-2
		c0-1,1-1.9,2-1.9c1.1,0,2,0.9,2,2C360.4,3.3,359.4,4.2,358.4,4.2z"/>
</g>
</svg>
