<?xml version="1.0" encoding="utf-8"?>
<!-- Generator: Adobe Illustrator 22.0.1, SVG Export Plug-In . SVG Version: 6.00 Build 0)  -->
<svg version="1.1" id="Livello_1" xmlns="http://www.w3.org/2000/svg" xmlns:xlink="http://www.w3.org/1999/xlink" x="0px" y="0px"
	 viewBox="0 0 399 198" style="enable-background:new 0 0 399 198;" xml:space="preserve">
<style type="text/css">
	.st0{fill:#FFFFFF;}
</style>
<title>lonely-planet</title>
<g>
	<path class="st0" d="M198.8,11.3c37-0.1,69.9,23.3,82.1,58.3l5-1.7l5-1.7C277.5,26.6,240.5,0.1,198.9,0S120.2,26.5,106.8,66
		l9.9,3.8C129,34.8,161.9,11.5,198.8,11.3z"/>
	<path class="st0" d="M131.1,108.6l-12-1.8c-6,4.6-12.9,2.2-15.1-3.9h29.1v18.8h14.5v-9.6c1.5,6.6,8.2,10.8,14.8,9.2
		c2.4-0.5,4.5-1.8,6.2-3.5c0,2.2-0.3,4.5-0.9,6.6c-2.2,5.1-9.4,5.1-13.1,1.7l-8.5,11c4.9,4.3,11.4,6.3,17.9,5.7
		c5.8-0.6,9.5-1.6,13.8-5.6c3.2-3.4,5-7.9,5.1-12.7V77.7h-14.2v26.8c0,2-1.5,3.6-3.5,3.6c-2,0-3.6-1.5-3.6-3.5c0,0,0-0.1,0-0.1V77.7
		h-14.1V60.5h-14.4v31.1c-4.6-9.9-13.4-15-24.4-13.5c-7.5,1.3-13.8,6.4-16.5,13.5C89.5,82.8,83,78.2,74,77.7
		c-9.5,0-16.6,4.7-19.5,13.8c-4.8-10.6-14.4-15.7-25.9-13.1c-6.3,1.7-11.5,6.2-14.2,12.2V60.5H0.1v61.3h14.4v-13.7
		C18,116,25.9,121,34.5,121c9.7-0.6,16-5.1,19.9-13.8v14.7h13.9V95.3c0.5-5.8,9.3-5.9,9.8,0v26.4h13.9v-13.8
		c2.8,6.7,8.7,11.7,15.8,13.3C124.5,122.8,131,111.4,131.1,108.6L131.1,108.6z M33.9,108.3c-5,0-9.1-4.1-9.1-9.1
		c0-5,4.1-9.1,9.1-9.1c5,0,9.1,4.1,9.1,9.1C43.1,104.2,39,108.3,33.9,108.3z M121.5,97.3h-17.7c1.3-4.9,6.3-7.8,11.2-6.5
		C118.1,91.7,120.6,94.2,121.5,97.3z M393.4,130.3c-0.3,0.5-0.5,0.9-0.6,1.2c-0.2-0.4-0.3-0.7-0.5-1.1l-2.6-5.2h-2.2v7.4h1.4v-6.3
		l3.2,6.3h1.3l3.2-6.2v6.2h1.4v-7.4h-1.9L393.4,130.3L393.4,130.3z"/>
	<path class="st0" d="M198.7,186.2c-36.7,0.3-69.6-22.7-82.1-57.2l-5,1.7l-5,1.7c13.9,38.9,50.7,64.8,91.9,64.9
		c41.3,0,78.1-25.9,92.1-64.7l-9.8-3.7C268.3,163.3,235.4,186.3,198.7,186.2L198.7,186.2z"/>
	<path class="st0" d="M377.1,126h3.7v6.5h1.5V126h3.7v-0.9h-8.8V126z"/>
	<path class="st0" d="M381.7,119.4c6.2,4.5,17.3,0.2,17.1-2.7l-0.5-12.1l-0.6,0.6c-2,1.8-5.2,1.6-7-0.4c-0.3-0.3-0.5-0.6-0.7-1
		c-1.4-4.1-0.6-8.5-0.6-12.9h8.8V77.9h-8.8v-8.8h-13.9v22.4c-2.2-5.6-6.7-10-12.3-12.3c-12-4.2-23.4,0.8-28.6,12.3
		c-1.6-5.6-5.7-10.2-11-12.5c-11.6-4.1-22.7,0.8-26.7,12.5c-3.2-7.4-7.8-11.2-15.7-13.4c-10-2.1-20.2,3.1-24.3,12.5V60.5h-14.4v30.1
		c-1.6-3.4-3.9-6.4-6.8-8.7c-14.8-10.7-34.2,0-34.6,18v38.2h14.4c0-3.8-0.4-18.8-0.4-18.8l1.6,0.7c10.8,2.7,21.7-2.7,25.9-11.1v13
		h14.4v-13c3.7,8.7,12.5,14,21.9,13.2c4.5,0.3,8.3-11.7,8.4-8.4v8.4h9.6l14-0.2V95.3c0-5.5,9-6,9.5-0.3c0.1,8.7,0.1,18.3,0.1,26.8
		h14.2V108c2.2,5.4,6.5,9.8,11.9,12.2c11.4,3.7,23.4,1.9,27.8-12l-12.1-1.9c-2.8,4.2-12.7,5-15.8-3.2h29.1
		C375.4,109.7,375.5,114.9,381.7,119.4L381.7,119.4z M223.2,108.6c-5,0-9.1-4.1-9.1-9.1s4.1-9.1,9.1-9.1c5,0,9.1,4.1,9.1,9.1
		C232.3,104.5,228.2,108.5,223.2,108.6L223.2,108.6z M276.5,108.6c-5,0-9.1-4.1-9.1-9.1c0-5,4.1-9.1,9.1-9.1c5,0,9.1,4.1,9.1,9.1
		c0,0,0,0,0,0C285.6,104.5,281.5,108.6,276.5,108.6L276.5,108.6z M346.3,96.6c1.4-4.8,6.4-7.6,11.3-6.2c3,0.9,5.3,3.2,6.2,6.2H346.3
		L346.3,96.6L346.3,96.6z"/>
</g>
</svg>
