<?xml version="1.0" encoding="utf-8"?>
<!-- Generator: Adobe Illustrator 22.0.1, SVG Export Plug-In . SVG Version: 6.00 Build 0)  -->
<svg version="1.1" id="Livello_1" xmlns="http://www.w3.org/2000/svg" xmlns:xlink="http://www.w3.org/1999/xlink" x="0px" y="0px"
	 viewBox="0 0 400 185" style="enable-background:new 0 0 400 185;" xml:space="preserve">
<style type="text/css">
	.st0{fill:#FFFFFF;}
</style>
<g>
	<path class="st0" d="M71.4,0.2c0,0-5.9,17.4-6.2,17.4c0,0-4.2,11.8-18.4,11.8H11.8L0.3,59.3h49.6c-0.3,0-37.1,102.1-37.1,102.1
		s-8,22.9,11.8,22.9h93.7l10.8-29.5H63.5c0,0-10.1-1-6.6-11.1l26.7-72.9c0,0,4.5-11.4,18.1-11.4h147.9l11.1-29.9H98.9l10.4-29.2
		L71.4,0.2L71.4,0.2z"/>
	<path class="st0" d="M351.8,72.1c-10.8,0-16.1,9-16.1,9s-12.2,33.7-15.5,42.7c-3.3,9,7,9.9,7,9.9h20.3c0,0-6.8,18.2-7.3,19.6
		c-0.5,1.3-1.3,1.4-1.3,1.4h-68.4l-10.8,29.5h87.8c12.7,0,13.4-6.8,13.4-6.8s20.7-56.2,22.7-62.1c2.1-5.9-4-7.3-4-7.3h-21
		c-1.6,0-1.4-1.1-1.4-1.1s4-10.7,4.3-12c0.4-1.2,1.9-1.2,1.9-1.2l27.6,0.2l8.3-21.8H351.8L351.8,72.1z"/>
	<path class="st0" d="M98.9,116l6.5-17.9c0.6-1.5,2.4-2.8,4.1-2.8h16.1c1.7,0,2.7,1.2,2.1,2.8l-6.5,17.9c-0.5,1.5-2.4,2.8-4.1,2.8
		h-16C99.4,118.9,98.4,117.6,98.9,116z M102.1,72.1c-5.1,0-10.6,3.7-12.3,8.3l-19.4,53.4c-1.7,4.6,1.1,8.3,6.3,8.3h48
		c5.1,0,10.6-3.7,12.3-8.3l19.3-53.4c1.7-4.6-1.1-8.3-6.2-8.3L102.1,72.1z"/>
	<path class="st0" d="M274.4,95.4h17c1.7,0,2.7,1.2,2.2,2.8L287,116c-0.6,1.5-2.4,2.8-4.1,2.8h-17L274.4,95.4z M256,72.1
		l-40.8,112.1l29.3,0l15.5-42h32.8c5.1,0,10.6-3.7,12.2-8.3l19.4-53.4c1.7-4.6-1.1-8.3-6.2-8.3L256,72.1z"/>
	<path class="st0" d="M191.8,95.4h17c1.7,0,2.7,1.2,2.1,2.8l-6.5,17.9c-0.5,1.5-2.4,2.8-4.1,2.8h-17.1L191.8,95.4z M173.4,72.1
		l-40.8,112.1l29.4,0l15.4-42h32.8c5.1,0,10.6-3.7,12.3-8.3l19.4-53.4c1.7-4.6-1.1-8.3-6.3-8.3L173.4,72.1z"/>
</g>
</svg>
