<?xml version="1.0" encoding="utf-8"?>
<!-- Generator: Adobe Illustrator 22.0.1, SVG Export Plug-In . SVG Version: 6.00 Build 0)  -->
<svg version="1.1" id="Livello_1" xmlns="http://www.w3.org/2000/svg" xmlns:xlink="http://www.w3.org/1999/xlink" x="0px" y="0px"
	 viewBox="0 0 195 37" style="enable-background:new 0 0 195 37;" xml:space="preserve">
<style type="text/css">
	.st0{fill:#FFFFFF;}
</style>
<g>
	<path class="st0" d="M56.1,2.2v33.9h1.5V2.2H56.1z"/>
	<path class="st0" d="M169.1,11c0.1,0.4,0.4,0.7,0.7,0.9c0.4,0.2,0.9,0.3,1.4,0.3c0.5,0,0.9-0.1,1.3-0.2c0.4-0.2,0.8-0.4,1.2-0.6
		c0.3-0.2,0.7-0.5,0.9-0.8c0.3-0.4,0.6-0.9,0.7-1.5c0.2-0.6,0.3-1.3,0.3-1.9c0-0.3,0-0.6-0.1-0.9c-0.1-0.3-0.2-0.5-0.4-0.7
		c-0.2-0.2-0.5-0.4-0.8-0.5c-0.4-0.1-0.8-0.2-1.1-0.2c-0.5,0-1,0.1-1.4,0.3c-0.4,0.2-0.9,0.4-1.2,0.7c-0.3,0.2-0.5,0.4-0.8,0.7
		c-0.3,0.4-0.5,0.9-0.7,1.4c-0.2,0.6-0.3,1.2-0.3,1.9C168.9,10.2,169,10.6,169.1,11L169.1,11z M170.9,7.5c0.1-0.6,0.4-1.2,0.7-1.7
		c0.3-0.3,0.6-0.4,1-0.4c0.4,0,0.7,0.1,0.9,0.4c0.3,0.4,0.4,0.8,0.4,1.3c0,0.7-0.1,1.5-0.3,2.2c-0.1,0.4-0.3,0.8-0.5,1.2
		c-0.1,0.3-0.3,0.5-0.6,0.6c-0.2,0.1-0.5,0.2-0.7,0.2c-0.4,0-0.7-0.1-1-0.4c-0.3-0.4-0.4-0.8-0.3-1.3C170.6,9,170.7,8.2,170.9,7.5
		L170.9,7.5z M177.7,5.8h1l-1.1,5.5c-0.2,1-0.4,2-0.7,3c-0.1,0.2-0.2,0.4-0.3,0.5c-0.1,0.1-0.2,0.1-0.4,0.1c-0.1,0-0.3-0.1-0.4-0.1
		c-0.1-0.1-0.3-0.3-0.3-0.5h-0.2c-0.1,0.3-0.1,0.5-0.2,0.7s-0.2,0.5-0.3,0.9c0.2,0.1,0.3,0.1,0.5,0.1c0.3,0,0.5-0.1,0.7-0.2
		c0.5-0.3,1-0.7,1.4-1.2c0.5-0.5,0.8-1.2,1.1-1.9c0.4-1.1,0.7-2.3,1-3.4l0.8-3.5h1.9c0.1-0.3,0.1-0.5,0.2-0.8l-0.1-0.1
		c-0.2,0-0.5,0.1-0.7,0.1c-0.5,0-0.9,0-1,0h-0.1c0.1-0.7,0.3-1.3,0.4-2c0-0.2,0.1-0.4,0.2-0.5c0.1-0.1,0.2-0.2,0.3-0.3
		c0.1-0.1,0.2-0.1,0.4-0.1c0.2,0,0.4,0.1,0.5,0.2c0.2,0.2,0.4,0.4,0.6,0.7h0.2c0.1-0.6,0.2-1.3,0.4-1.9C183.3,1,183.1,1,182.9,1
		c-0.2,0-0.5,0-0.7,0.1c-0.4,0.2-0.7,0.4-1,0.7c-0.5,0.4-1,0.7-1.4,1.2c-0.2,0.2-0.4,0.5-0.6,0.8c-0.1,0.3-0.2,0.6-0.3,0.9
		c0,0.2-0.1,0.3-0.1,0.4c-0.3,0.1-0.5,0.2-0.8,0.3c-0.3,0.1-0.6,0.2-0.7,0.2l-0.1,0.4L177.7,5.8L177.7,5.8z M76.1,22.3h-1.3
		c0,0.6,0,1.1-0.2,1.7c0,0.2-0.1,0.3-0.3,0.4c-0.8,0.2-1.6,0.2-2.5,0.2c-0.5,0-1.3,0-2.6-0.1v-2.1c0-2.6,0.1-4.4,0.2-5.4l1.6-0.1
		h1.4c0.8,0,1.6,0,2.3,0.2c0.4,0,0.9,0.2,1.3,0.4c0.1,0,0.1,0.1,0.1,0.1c0.1,0.3,0.1,0.5,0.1,0.8c0.1,0.8,0.1,1.3,0.1,1.6h1.2
		c0-0.7,0-1.4,0.1-2.3s0.2-1.6,0.3-2.2l-0.1-0.2c-1-0.1-1.9-0.2-2.9-0.1l-7.3,0.1L62.3,15v1.3c0.6,0,1.2,0.1,1.8,0.2
		c0.2,0,0.3,0.1,0.4,0.2c0.1,0.1,0.1,0.2,0.1,0.2c0.1,0.5,0.2,1.1,0.2,1.6c0.1,2.7,0.1,4.1,0.1,4.2V29c0,0.5,0,1.4-0.1,2.6
		c-0.1,1.2-0.1,2-0.1,2.2c0,0.3-0.1,0.5-0.2,0.8c-0.1,0.1-0.1,0.1-0.2,0.2c-0.7,0.1-1.3,0.2-2,0.2v1.2c1.9-0.1,3.2-0.1,4.1-0.1
		l5.9,0.1V35c-0.8,0-1.6-0.1-2.4-0.2c-0.2,0-0.3-0.1-0.4-0.3c-0.2-0.5-0.2-1.1-0.2-1.7c-0.1-1-0.1-2.6-0.1-5v-1.7h1.2
		c1.2,0,2.4,0,3.5,0.2c0.2,0,0.4,0.1,0.5,0.3c0.2,0.7,0.3,1.5,0.3,2.3h1.3L76.1,22.3z M84.5,36.1c0.7,0,1.8,0,3.5,0.1l3.6,0.1
		c1.3,0,2.2,0,2.9-0.1c0.3,0,0.6-0.1,0.9-0.1c0-0.2,0-0.8,0.1-1.7l0.4-3.1v-0.5h-1.2c-0.2,1-0.4,1.8-0.6,2.6c0,0.2-0.1,0.4-0.3,0.6
		c-0.2,0.1-0.5,0.2-0.7,0.2c-1.3,0.2-2.7,0.3-4,0.3c-0.5,0-1.5,0-2.8-0.1v-2.6v-4.3V23c0-1.7,0-3.1,0.1-4.2c0-0.6,0-1.3,0.1-1.9
		c0-0.1,0.1-0.2,0.2-0.3c0.7-0.2,1.4-0.3,2.1-0.3V15c-1.6,0.1-3.4,0.1-5.2,0.1c-1.6,0-3.1,0-4.4-0.1v1.3c0.8,0,1.6,0.1,2.3,0.3
		c0.1,0.1,0.2,0.2,0.2,0.3c0.2,1.1,0.2,2.2,0.2,3.3v5.9c0,2.2,0,4-0.1,5.6s-0.1,2.4-0.1,2.7c0,0.1,0,0.1-0.1,0.2
		c-0.1,0.1-0.3,0.2-0.4,0.3c-0.4,0.2-0.7,0.4-1.1,0.6v0.8C82,36.1,83.5,36,84.5,36.1L84.5,36.1z M97.5,31.9c0.9,1.6,2.2,2.8,3.8,3.6
		c1.8,0.9,3.8,1.3,5.8,1.2c1.9,0,3.8-0.3,5.6-1c1.2-0.5,2.3-1.2,3.2-2.2c0.9-0.9,1.6-2,2.1-3.2c0.7-1.7,1-3.5,1-5.3
		c0-1-0.1-2.1-0.4-3.1c-0.2-0.9-0.5-1.8-1-2.6c-1.1-1.9-2.9-3.3-4.9-4c-1.6-0.5-3.3-0.8-5-0.8c-1.7,0-3.5,0.3-5.1,0.8
		c-2.6,0.9-4.7,3-5.8,5.5c-0.6,1.5-0.9,3.2-0.8,4.8C96.1,27.9,96.6,30,97.5,31.9L97.5,31.9z M101.5,20.5c0.4-1.2,1.2-2.3,2.3-3.1
		c1.1-0.7,2.4-1.1,3.8-1c1.1,0,2.1,0.2,3.1,0.6c0.8,0.5,1.5,1.1,2,1.9c0.6,0.9,1.1,1.9,1.3,3c0.3,1.3,0.5,2.6,0.5,3.9
		c0,1.8-0.2,3.6-0.8,5.3c-0.4,1.2-1.2,2.3-2.3,3c-1,0.6-2.2,0.9-3.4,0.9c-1.3,0-2.5-0.3-3.6-1c-1.1-0.8-2-2-2.5-3.3
		c-0.7-1.9-1.1-3.9-1-5.9C100.8,23.4,101,21.9,101.5,20.5L101.5,20.5z M121.3,16.6c0.1,0.1,0.2,0.2,0.2,0.3c0.1,0.7,0.2,1.5,0.2,2.3
		l0.1,3.2V28l-0.1,4.4c0,0.6-0.1,1.2-0.2,1.8c0,0.1-0.1,0.3-0.1,0.4c-0.1,0.1-0.2,0.1-0.3,0.2c-0.7,0.1-1.3,0.2-2,0.2v1.3
		c1.3-0.1,2.8-0.1,4.4-0.1c1.8,0,3.5,0,5.2,0.1v-1.3c-0.6,0-1.2,0-1.8-0.1c-0.2,0-0.3-0.1-0.4-0.2c-0.1-0.1-0.2-0.1-0.2-0.2
		c-0.1-0.4-0.2-0.7-0.2-1.1c0-0.3,0-1.5-0.1-3.5V25c0-1,0-2.9,0.1-5.7c0-1.3,0-2.1,0.1-2.5c0.5-0.1,1-0.1,1.4-0.1
		c0.8,0,1.5,0,2.3,0.2c0.7,0.3,1.2,0.7,1.6,1.3c0.5,0.7,0.7,1.5,0.7,2.3c0,0.9-0.2,1.7-0.6,2.5c-0.3,0.7-0.9,1.2-1.6,1.5
		c-0.9,0.3-1.8,0.5-2.7,0.4l-0.2,0.5c0.4,0.3,0.7,0.6,0.9,1c0.7,0.9,1.5,2.1,2.4,3.6l3.2,5.3c0.2,0.3,0.3,0.6,0.4,0.9
		c0.8,0,1.6-0.1,2.4-0.1c0.7,0,1.8,0,3.4,0.1v-1.3c-0.3,0-0.7,0-1-0.1c-0.2-0.1-0.4-0.2-0.5-0.4c-0.2-0.2-0.6-0.8-1.4-1.8l-1-1.5
		l-2.4-3.5l-0.2-0.3c-0.1-0.1-0.2-0.4-0.6-0.9s-0.6-0.9-0.9-1.4c1.4-0.4,2.6-1.3,3.5-2.4c0.7-1,1.1-2.1,1.1-3.3
		c0-0.9-0.3-1.9-0.8-2.6c-0.5-0.7-1.2-1.2-2-1.4c-1.2-0.3-2.4-0.4-3.6-0.3c-0.8,0-1.9,0-3.1,0.1c-0.8,0-1.7,0.1-2.7,0.1h-2.9
		l-2.4-0.1v1.2C119.9,16.3,120.6,16.4,121.3,16.6L121.3,16.6z M145.4,15.1c-1.6,0-3.1,0-4.4-0.1v1.3c0.6,0,1.3,0,1.9,0.1
		c0.1,0,0.3,0.1,0.4,0.2c0.1,0.1,0.1,0.2,0.1,0.3c0.1,0.8,0.2,1.6,0.2,2.4v10.2c0,1,0,2.2-0.1,3.4c-0.1,0.8-0.1,1.3-0.1,1.4
		c0,0.1-0.1,0.2-0.1,0.2c-0.1,0.1-0.3,0.2-0.4,0.2c-0.2,0-0.8,0-1.8,0.1v1.3c1.4-0.1,2.9-0.1,4.4-0.1c1.9,0,3.6,0,5.3,0.1v-1.3
		c-0.6,0-1.2,0-1.8-0.1c-0.2,0-0.3-0.1-0.5-0.2c-0.1-0.1-0.2-0.2-0.2-0.3c-0.1-0.7-0.2-1.3-0.1-2v-8.9c0-0.2,0-1.5,0.1-4v-1.5
		c0-0.3,0.1-0.7,0.1-1c0-0.1,0.1-0.2,0.2-0.2c0.1-0.1,0.3-0.1,0.4-0.2c0.6-0.1,1.2-0.1,1.8-0.1V15C149,15.1,147.3,15.1,145.4,15.1
		L145.4,15.1z M157.1,36.1l4.5,0.1c1.8,0,3.5-0.2,5.2-0.7c1.5-0.5,2.8-1.2,4-2.2c1.2-1,2.2-2.3,2.9-3.8c0.7-1.6,1.1-3.4,1.1-5.2
		c0-1.4-0.2-2.8-0.7-4.2c-0.3-0.8-0.7-1.5-1.2-2.1c-0.6-0.7-1.2-1.2-2-1.7c-0.9-0.5-1.8-0.8-2.8-1c-1.4-0.2-2.9-0.4-4.3-0.3
		c-0.8,0-1.8,0-3.1,0.1c-1.8,0.1-3,0.1-3.6,0.1l-5.4-0.2v1.2c1.1,0.1,1.7,0.2,1.9,0.3c0.1,0,0.3,0.1,0.4,0.2
		c0.1,0.1,0.1,0.1,0.1,0.2c0.1,0.9,0.2,1.8,0.2,2.7c0.1,2.6,0.1,4.5,0.1,5.9V28c0,3-0.1,5.2-0.2,6.6c-0.3,0.2-0.7,0.5-1,0.7
		l-0.4,0.2v0.7L157.1,36.1L157.1,36.1z M158.5,28.4v-3.5c0-4,0.1-6.7,0.2-8.1c0.9-0.1,1.7-0.2,2.6-0.2c1.6-0.1,3.1,0.1,4.6,0.5
		c1,0.3,1.9,1,2.5,1.8c0.7,0.8,1.2,1.8,1.4,2.8c0.3,1.1,0.4,2.2,0.4,3.3c0,1.2-0.1,2.4-0.4,3.5c-0.3,1-0.7,2-1.2,2.8
		c-0.4,0.7-1,1.3-1.7,1.8c-0.6,0.4-1.3,0.7-2,0.9c-1.2,0.3-2.4,0.4-3.6,0.4c-0.9,0-1.8-0.1-2.7-0.2
		C158.5,33.4,158.5,31.4,158.5,28.4L158.5,28.4z M175.6,36.1l3.5,0.1V35c-0.7,0-1.5-0.1-2.2-0.3c-0.2-0.1-0.3-0.3-0.2-0.5
		c0.1-0.9,0.4-1.8,0.8-2.6l0.7-1.8h7.8l1.4,3.3c0.2,0.4,0.3,0.8,0.4,1.2c0,0.2-0.1,0.3-0.2,0.4c-0.7,0.2-1.4,0.2-2.1,0.2v1.2
		l5.3-0.1l4.2,0.1V35l-0.7-0.1c-0.3,0-0.6,0-0.9-0.1c-0.1,0-0.2-0.1-0.3-0.2c-0.1-0.1-0.2-0.2-0.3-0.4l-0.6-1.4l-0.9-2.1l-6.7-15.9
		h-2.2l-1.3,3.4l-3.9,9.8c-0.5,1.2-1,2.5-1.5,3.7c-0.3,0.8-0.7,1.5-1,2.3c-0.1,0.2-0.2,0.3-0.3,0.5c-0.1,0.1-0.3,0.2-0.4,0.2
		c-0.5,0.1-1,0.1-1.5,0.2v1.2L175.6,36.1L175.6,36.1z M182,20.2l3.2,7.8h-6.4L182,20.2L182,20.2z M63.1,2.8c0.1,0,0.2,0.1,0.2,0.2
		c0,0.1,0.1,0.3,0.1,0.4v5.7c0.1,0.6,0.4,1.1,0.8,1.5c0.3,0.2,0.6,0.4,1,0.5c0.6,0.2,1.2,0.3,1.8,0.3c0.5,0,1-0.1,1.4-0.2
		c0.4-0.1,0.8-0.3,1.1-0.5c0.3-0.2,0.6-0.5,0.7-0.8c0.2-0.3,0.3-0.6,0.3-1c0.1-0.4,0.1-0.8,0.1-1.2V6.1V4.3c0-0.4,0-0.9,0.1-1.3
		c0-0.1,0.1-0.1,0.1-0.2c0.2-0.1,0.5-0.1,0.7-0.1V2.2l-1.4,0h-1.6v0.5c0.3,0,0.6,0,0.9,0.1c0.1,0,0.1,0.1,0.2,0.2
		c0.1,0.3,0.1,0.7,0.1,1v3.3c0,0.6,0,1.2-0.2,1.8c-0.2,0.3-0.4,0.6-0.8,0.8c-0.4,0.2-0.9,0.3-1.4,0.3c-0.4,0-0.8-0.1-1.2-0.2
		c-0.3-0.1-0.6-0.3-0.7-0.6c-0.2-0.3-0.3-0.6-0.3-1V4.8c0-0.6,0-1.2,0-1.7c0-0.1,0.1-0.2,0.1-0.2c0.3-0.1,0.6-0.1,0.9-0.1V2.2h-1.1
		l-0.9,0l-2,0v0.5L63.1,2.8L63.1,2.8z M74.4,11.1h3.1v-0.5h-0.1c-0.2,0-0.4,0-0.6-0.1c-0.1,0-0.1,0-0.2-0.1c0,0-0.1-0.1-0.1-0.1
		c-0.1-0.3-0.1-0.6-0.1-0.9V4.2c2.5,3.1,4.4,5.4,5.8,6.9l1.1,0.2l0.1-0.1c-0.1-0.6-0.1-2.3-0.1-5.1V4.4c0-0.5,0-1,0.1-1.5
		c0,0,0-0.1,0.1-0.1c0.3-0.1,0.6-0.1,0.9-0.1V2.2h-3v0.5c0.3,0,0.7,0,1,0.1c0.1,0.1,0.1,0.2,0.1,0.3c0.1,0.4,0.1,1.7,0.1,4v1.5
		c-0.6-0.6-1.3-1.4-2.2-2.5c-1.1-1.3-2.2-2.6-3.2-3.9h-2.7v0.5c0.3,0,0.5,0,0.8,0.1c0.1,0,0.1,0,0.2,0.1c0,0.1,0.1,0.1,0.1,0.2
		c0,0.2,0,0.4,0,0.6v5.2c0,0.6-0.1,1-0.1,1.2c0,0.1,0,0.2-0.1,0.2c0,0-0.1,0.1-0.1,0.1c-0.3,0-0.6,0.1-0.9,0.1L74.4,11.1L74.4,11.1z
		 M89,2.2h-1.8v0.5c0.3,0,0.5,0,0.8,0c0.1,0,0.1,0,0.2,0.1c0,0,0.1,0.1,0.1,0.1c0.1,0.3,0.1,0.7,0.1,1v4.3c0,0.4,0,0.9-0.1,1.4v0.6
		c0,0,0,0.1-0.1,0.1c-0.1,0-0.1,0.1-0.2,0.1h-0.8V11h4v-0.5c-0.3,0-0.5,0-0.8,0c-0.1,0-0.2-0.1-0.2-0.1c0,0-0.1-0.1-0.1-0.1
		c-0.1-0.3-0.1-0.6-0.1-0.9V5.7V4V3.4c0-0.1,0-0.3,0.1-0.4c0-0.1,0.1-0.1,0.1-0.1c0.1,0,0.1-0.1,0.2-0.1c0.3,0,0.5,0,0.8,0V2.2
		L89,2.2L89,2.2z M99.1,11.1c0.3-0.7,0.8-2,1.5-3.7l0.9-2l0.4-1.1c0.2-0.5,0.4-1,0.7-1.4c0.2-0.1,0.5-0.1,0.7-0.1V2.2h-3v0.6h0.9
		c0,0,0.1,0,0.1,0.1c0,0.1,0,0.1,0,0.2c0,0,0,0.1,0,0.2c0,0.2-0.2,0.5-0.3,1c-0.1,0.4-0.3,0.8-0.4,1.2l-1.4,3.5L97.6,5V4.9l-0.3-0.6
		c-0.2-0.4-0.3-0.8-0.4-1.2c0-0.1,0-0.1,0.1-0.2c0.1,0,0.1-0.1,0.2-0.1c0.3,0,0.5-0.1,0.8-0.1V2.2h-4.1v0.6c0.3,0,0.5,0,0.8,0.1
		c0.2,0.2,0.3,0.3,0.4,0.6c0.2,0.3,0.6,1.3,1.3,3l0.9,2.2l1,2.5L99.1,11.1L99.1,11.1z M108.3,11h3.1c0.4,0,0.8,0,1.2,0l0.1-0.1
		c0-0.7,0.1-1.4,0.1-2.1h-0.4c0,0.4-0.1,0.8-0.2,1.1c0,0,0,0.1-0.1,0.1c-0.2,0.1-0.5,0.1-0.7,0.1h-2.5V6.8c0.3,0,0.7,0,1,0
		c0.4,0,0.8,0,1.1,0.1c0.1,0,0.2,0.1,0.3,0.2c0.1,0.3,0.1,0.6,0.1,0.9h0.5V5.2h-0.5c0,0.3,0,0.5-0.1,0.8c0,0.1,0,0.1-0.1,0.1
		c-0.1,0-0.3,0-0.4,0h-1.9V4.8c0-0.6,0-1.2,0.1-1.8h1.2c0.4,0,0.8,0,1.2,0.1c0.2,0,0.3,0,0.5,0.1c0,0,0.1,0.1,0.1,0.1
		c0,0.3,0.1,0.6,0.1,0.9h0.5l0.1-0.9l0.1-0.9V2.3l-0.3-0.1h-6.5v0.5c0.3,0,0.6,0,0.9,0.1c0,0,0.1,0.1,0.1,0.1
		c0.1,0.3,0.1,0.6,0.1,0.9v4.1c0,0.3,0,0.9-0.1,1.6c0,0.4,0,0.7-0.1,0.9c-0.2,0.1-0.4,0.3-0.6,0.4v0.3L108.3,11z M116.6,2.8
		c0,0,0.1,0.1,0.1,0.1c0.1,0.3,0.1,0.7,0.1,1v3.7l-0.1,1.8c0,0.3,0,0.5-0.1,0.8c0,0.1,0,0.1-0.1,0.2c0,0-0.1,0.1-0.1,0.1
		c-0.3,0-0.6,0.1-0.8,0.1v0.6h4v-0.6c-0.2,0-0.5,0-0.7,0c-0.1,0-0.1,0-0.2-0.1c0,0-0.1-0.1-0.1-0.1c0-0.1-0.1-0.3-0.1-0.5V8.4v-2V4
		V3c0.2,0,0.4-0.1,0.6,0c0.3,0,0.7,0,1,0.1c0.3,0.1,0.5,0.3,0.7,0.5c0.2,0.3,0.3,0.6,0.3,1c0,0.4-0.1,0.7-0.3,1
		c-0.1,0.3-0.4,0.5-0.7,0.7c-0.4,0.1-0.8,0.2-1.2,0.2l-0.1,0.2c0.2,0.1,0.3,0.3,0.4,0.4c0.3,0.4,0.6,0.9,1,1.5l1.4,2.2
		c0.1,0.1,0.1,0.2,0.2,0.4h2.4v-0.6c-0.1,0-0.3,0-0.4-0.1c-0.1,0-0.2-0.1-0.2-0.2c-0.1-0.1-0.3-0.3-0.6-0.7l-0.4-0.6l-1-1.5
		l-0.1-0.1L121.5,7c-0.1-0.2-0.3-0.4-0.4-0.6c0.6-0.2,1.1-0.5,1.5-1c0.3-0.4,0.5-0.9,0.5-1.4c0-0.4-0.1-0.8-0.3-1.1
		c-0.2-0.3-0.5-0.5-0.8-0.6c-0.5-0.1-1-0.2-1.5-0.1h-4.7v0.5C116.1,2.7,116.4,2.8,116.6,2.8L116.6,2.8z M133,3.4
		c0-0.3,0.1-0.5,0.1-0.8l-0.1-0.2c-0.3-0.2-0.7-0.3-1.1-0.3c-0.4-0.1-0.9-0.1-1.3-0.1c-0.4,0-0.8,0-1.3,0.1
		c-0.4,0.1-0.8,0.2-1.1,0.5c-0.3,0.2-0.6,0.6-0.8,0.9c-0.2,0.4-0.3,0.9-0.3,1.3c0,0.3,0.1,0.6,0.2,0.9c0.1,0.3,0.3,0.5,0.5,0.8
		c0.3,0.2,0.6,0.4,0.9,0.5c0.2,0.1,0.7,0.2,1.5,0.3c0.4,0.1,0.8,0.2,1.1,0.4c0.2,0.1,0.4,0.3,0.5,0.5c0.1,0.2,0.2,0.5,0.1,0.7
		c0,0.3-0.1,0.6-0.2,0.9c-0.2,0.3-0.4,0.5-0.7,0.6c-0.3,0.1-0.7,0.2-1.1,0.2c-0.4,0-0.9-0.1-1.3-0.3c-0.3-0.1-0.6-0.4-0.8-0.7
		c-0.1-0.4-0.1-0.8-0.1-1.1h-0.5c0,0.7,0,1.5-0.2,2.2c0.4,0.2,0.9,0.4,1.3,0.5c0.5,0.1,0.9,0.2,1.4,0.1c0.6,0,1.2-0.1,1.8-0.3
		c0.3-0.1,0.7-0.3,0.9-0.6c0.3-0.2,0.5-0.5,0.7-0.9c0.2-0.4,0.4-0.9,0.3-1.4c0-0.3,0-0.6-0.1-0.8c-0.1-0.2-0.2-0.4-0.3-0.6
		c-0.1-0.2-0.3-0.3-0.5-0.4c-0.3-0.1-0.5-0.3-0.8-0.3l-0.9-0.2l-1-0.2c-0.3-0.1-0.5-0.2-0.7-0.3c-0.2-0.1-0.3-0.2-0.4-0.4
		c-0.1-0.2-0.1-0.4-0.1-0.7c0-0.4,0.2-0.7,0.5-1c0.4-0.3,0.9-0.5,1.3-0.4c0.4,0,0.7,0.1,1.1,0.2c0.3,0.1,0.5,0.3,0.7,0.5
		c0,0.3,0.1,0.7,0.1,1h0.5C133,4,133,3.7,133,3.4L133,3.4z M138.7,2.2h-1.8v0.5c0.3,0,0.5,0,0.8,0c0.1,0,0.1,0,0.1,0.1
		c0,0,0.1,0.1,0.1,0.1c0,0.3,0.1,0.7,0.1,1v4.3c0,0.4,0,0.9-0.1,1.4v0.6c0,0,0,0.1-0.1,0.1c-0.1,0-0.1,0.1-0.2,0.1h-0.8V11h4v-0.5
		c-0.3,0-0.5,0-0.8,0c-0.1,0-0.1,0-0.2-0.1c0,0-0.1-0.1-0.1-0.1c-0.1-0.3-0.1-0.6-0.1-0.9V5.7V4V3.4c0-0.1,0-0.3,0.1-0.4
		c0,0,0-0.1,0.1-0.1c0.1,0,0.1-0.1,0.2-0.1c0.3,0,0.5,0,0.8,0V2.2L138.7,2.2L138.7,2.2z M147.5,11c0.6,0,1.3,0,2.1,0.1v-0.5
		c-0.3,0-0.6,0-0.9-0.1c-0.1,0-0.2-0.1-0.2-0.2c-0.1-0.5-0.1-1.1-0.1-1.6V4.8V3h0.9c0.5,0,0.9,0,1.2,0c0.1,0,0.1,0,0.2,0
		c0,0.1,0.1,0.2,0.1,0.3c0,0.3,0.1,0.6,0.1,0.9h0.5V2.9c0-0.2,0-0.5,0.1-0.7l-0.1-0.1h-8l-0.1,0.1c0,0.2,0,0.4,0.1,0.6s0,0.7,0,1.5
		h0.5c0-0.3,0-0.7,0.1-1c0-0.1,0-0.2,0.1-0.2c0.1,0,0.2-0.1,0.2,0h2.1v5.5c0,0.5,0,1.1-0.1,1.6c0,0.1-0.1,0.2-0.2,0.2
		c-0.3,0.1-0.6,0.1-0.9,0.1v0.5C146.1,11,146.8,11,147.5,11L147.5,11z M157.9,4.6c-0.3-0.5-0.6-1.1-0.9-1.6
		c-0.1-0.2-0.3-0.4-0.5-0.6c-0.2-0.2-0.4-0.3-0.6-0.4l-0.7,0.2l-1.4,0.3V3c0.2,0,0.4,0,0.6,0c0.2,0.1,0.3,0.3,0.4,0.4
		c0.4,0.4,0.7,0.9,1,1.4c0.5,0.7,0.9,1.4,1.3,2.2c0.1,0.2,0.2,0.4,0.2,0.6V10c0,0.1,0,0.3-0.1,0.4c0,0.1-0.1,0.1-0.2,0.1
		c-0.3,0-0.6,0.1-0.9,0.1v0.6h4.1v-0.6c-0.3,0-0.6,0-0.8-0.1c-0.1,0-0.1-0.1-0.2-0.1c-0.1-0.1-0.1-0.3-0.1-0.4c0-0.4,0-0.8,0-1.2
		V7.7c0-0.2,0-0.3,0-0.5c0-0.2,0.1-0.3,0.2-0.5c0.1-0.3,0.5-0.9,1.1-1.8s1.2-1.7,1.7-2.4V2.2h-1c-0.1,0.1-0.2,0.4-0.4,0.8l-1.2,2.1
		l-0.8,1.3C158.7,6.2,158.5,5.6,157.9,4.6L157.9,4.6z"/>
	<g>
		<path class="st0" d="M36.2,30.4v-8.7h8V16h-8V7.9H45V11h5.8V2.2H27.6v5.7h2.2v22.5h-2.2v5.7h10.7v-5.7L36.2,30.4z M24.6,23.3V7.9
			h2.1V2.2H16v5.7h2.1v13.5c0,5.7-0.6,8.4-4.7,8.4S8.7,27,8.7,21.4V7.9h2.1V2.2H0v5.7h2.1v15.4c0,3.4,0,6.1,1.6,8.6
			c1.8,2.8,5,4.6,9.7,4.6C21.6,36.5,24.6,32.2,24.6,23.3z M56.1,2.2v33.9h1.5V2.2H56.1z"/>
		<path class="st0" d="M169.1,11c0.1,0.4,0.4,0.7,0.7,0.9c0.4,0.2,0.9,0.3,1.4,0.3c0.5,0,0.9-0.1,1.3-0.2c0.4-0.2,0.8-0.4,1.2-0.6
			c0.3-0.2,0.7-0.5,0.9-0.8c0.3-0.4,0.6-0.9,0.7-1.5c0.2-0.6,0.3-1.3,0.3-1.9c0-0.3,0-0.6-0.1-0.9c-0.1-0.3-0.2-0.5-0.4-0.7
			c-0.2-0.2-0.5-0.4-0.8-0.5c-0.4-0.1-0.8-0.2-1.1-0.2c-0.5,0-1,0.1-1.4,0.3c-0.4,0.2-0.9,0.4-1.2,0.7c-0.3,0.2-0.5,0.4-0.8,0.7
			c-0.3,0.4-0.5,0.9-0.7,1.4c-0.2,0.6-0.3,1.2-0.3,1.9C168.9,10.2,169,10.6,169.1,11L169.1,11z M170.9,7.5c0.1-0.6,0.4-1.2,0.7-1.7
			c0.3-0.3,0.6-0.4,1-0.4c0.4,0,0.7,0.1,0.9,0.4c0.3,0.4,0.4,0.8,0.4,1.3c0,0.7-0.1,1.5-0.3,2.2c-0.1,0.4-0.3,0.8-0.5,1.2
			c-0.1,0.3-0.3,0.5-0.6,0.6c-0.2,0.1-0.5,0.2-0.7,0.2c-0.4,0-0.7-0.1-1-0.4c-0.3-0.4-0.4-0.8-0.3-1.3C170.6,9,170.7,8.2,170.9,7.5
			L170.9,7.5z M177.7,5.8h1l-1.1,5.5c-0.2,1-0.4,2-0.7,3c-0.1,0.2-0.2,0.4-0.3,0.5c-0.1,0.1-0.2,0.1-0.4,0.1c-0.1,0-0.3-0.1-0.4-0.1
			c-0.1-0.1-0.3-0.3-0.3-0.5h-0.2c-0.1,0.3-0.1,0.5-0.2,0.7s-0.2,0.5-0.3,0.9c0.2,0.1,0.3,0.1,0.5,0.1c0.3,0,0.5-0.1,0.7-0.2
			c0.5-0.3,1-0.7,1.4-1.2c0.5-0.5,0.8-1.2,1.1-1.9c0.4-1.1,0.7-2.3,1-3.4l0.8-3.5h1.9c0.1-0.3,0.1-0.5,0.2-0.8l-0.1-0.1
			c-0.2,0-0.5,0.1-0.7,0.1c-0.5,0-0.9,0-1,0h-0.1c0.1-0.7,0.3-1.3,0.4-2c0-0.2,0.1-0.4,0.2-0.5c0.1-0.1,0.2-0.2,0.3-0.3
			c0.1-0.1,0.2-0.1,0.4-0.1c0.2,0,0.4,0.1,0.5,0.2c0.2,0.2,0.4,0.4,0.6,0.7h0.2c0.1-0.6,0.2-1.3,0.4-1.9C183.3,1,183.1,1,182.9,1
			c-0.2,0-0.5,0-0.7,0.1c-0.4,0.2-0.7,0.4-1,0.7c-0.5,0.4-1,0.7-1.4,1.2c-0.2,0.2-0.4,0.5-0.6,0.8c-0.1,0.3-0.2,0.6-0.3,0.9
			c0,0.2-0.1,0.3-0.1,0.4c-0.3,0.1-0.5,0.2-0.8,0.3c-0.3,0.1-0.6,0.2-0.7,0.2l-0.1,0.4L177.7,5.8L177.7,5.8z M76.1,22.3h-1.3
			c0,0.6,0,1.1-0.2,1.7c0,0.2-0.1,0.3-0.3,0.4c-0.8,0.2-1.6,0.2-2.5,0.2c-0.5,0-1.3,0-2.6-0.1v-2.1c0-2.6,0.1-4.4,0.2-5.4l1.6-0.1
			h1.4c0.8,0,1.6,0,2.3,0.2c0.4,0,0.9,0.2,1.3,0.4c0.1,0,0.1,0.1,0.1,0.1c0.1,0.3,0.1,0.5,0.1,0.8c0.1,0.8,0.1,1.3,0.1,1.6h1.2
			c0-0.7,0-1.4,0.1-2.3s0.2-1.6,0.3-2.2l-0.1-0.2c-1-0.1-1.9-0.2-2.9-0.1l-7.3,0.1L62.3,15v1.3c0.6,0,1.2,0.1,1.8,0.2
			c0.2,0,0.3,0.1,0.4,0.2c0.1,0.1,0.1,0.2,0.1,0.2c0.1,0.5,0.2,1.1,0.2,1.6c0.1,2.7,0.1,4.1,0.1,4.2V29c0,0.5,0,1.4-0.1,2.6
			c-0.1,1.2-0.1,2-0.1,2.2c0,0.3-0.1,0.5-0.2,0.8c-0.1,0.1-0.1,0.1-0.2,0.2c-0.7,0.1-1.3,0.2-2,0.2v1.2c1.9-0.1,3.2-0.1,4.1-0.1
			l5.9,0.1V35c-0.8,0-1.6-0.1-2.4-0.2c-0.2,0-0.3-0.1-0.4-0.3c-0.2-0.5-0.2-1.1-0.2-1.7c-0.1-1-0.1-2.6-0.1-5v-1.7h1.2
			c1.2,0,2.4,0,3.5,0.2c0.2,0,0.4,0.1,0.5,0.3c0.2,0.7,0.3,1.5,0.3,2.3h1.3L76.1,22.3z M84.5,36.1c0.7,0,1.8,0,3.5,0.1l3.6,0.1
			c1.3,0,2.2,0,2.9-0.1c0.3,0,0.6-0.1,0.9-0.1c0-0.2,0-0.8,0.1-1.7l0.4-3.1v-0.5h-1.2c-0.2,1-0.4,1.8-0.6,2.6c0,0.2-0.1,0.4-0.3,0.6
			c-0.2,0.1-0.5,0.2-0.7,0.2c-1.3,0.2-2.7,0.3-4,0.3c-0.5,0-1.5,0-2.8-0.1v-2.6v-4.3V23c0-1.7,0-3.1,0.1-4.2c0-0.6,0-1.3,0.1-1.9
			c0-0.1,0.1-0.2,0.2-0.3c0.7-0.2,1.4-0.3,2.1-0.3V15c-1.6,0.1-3.4,0.1-5.2,0.1c-1.6,0-3.1,0-4.4-0.1v1.3c0.8,0,1.6,0.1,2.3,0.3
			c0.1,0.1,0.2,0.2,0.2,0.3c0.2,1.1,0.2,2.2,0.2,3.3v5.9c0,2.2,0,4-0.1,5.6s-0.1,2.4-0.1,2.7c0,0.1,0,0.1-0.1,0.2
			c-0.1,0.1-0.3,0.2-0.4,0.3c-0.4,0.2-0.7,0.4-1.1,0.6v0.8C82,36.1,83.5,36,84.5,36.1L84.5,36.1z M97.5,31.9
			c0.9,1.6,2.2,2.8,3.8,3.6c1.8,0.9,3.8,1.3,5.8,1.2c1.9,0,3.8-0.3,5.6-1c1.2-0.5,2.3-1.2,3.2-2.2c0.9-0.9,1.6-2,2.1-3.2
			c0.7-1.7,1-3.5,1-5.3c0-1-0.1-2.1-0.4-3.1c-0.2-0.9-0.5-1.8-1-2.6c-1.1-1.9-2.9-3.3-4.9-4c-1.6-0.5-3.3-0.8-5-0.8
			c-1.7,0-3.5,0.3-5.1,0.8c-2.6,0.9-4.7,3-5.8,5.5c-0.6,1.5-0.9,3.2-0.8,4.8C96.1,27.9,96.6,30,97.5,31.9L97.5,31.9z M101.5,20.5
			c0.4-1.2,1.2-2.3,2.3-3.1c1.1-0.7,2.4-1.1,3.8-1c1.1,0,2.1,0.2,3.1,0.6c0.8,0.5,1.5,1.1,2,1.9c0.6,0.9,1.1,1.9,1.3,3
			c0.3,1.3,0.5,2.6,0.5,3.9c0,1.8-0.2,3.6-0.8,5.3c-0.4,1.2-1.2,2.3-2.3,3c-1,0.6-2.2,0.9-3.4,0.9c-1.3,0-2.5-0.3-3.6-1
			c-1.1-0.8-2-2-2.5-3.3c-0.7-1.9-1.1-3.9-1-5.9C100.8,23.4,101,21.9,101.5,20.5L101.5,20.5z M121.3,16.6c0.1,0.1,0.2,0.2,0.2,0.3
			c0.1,0.7,0.2,1.5,0.2,2.3l0.1,3.2V28l-0.1,4.4c0,0.6-0.1,1.2-0.2,1.8c0,0.1-0.1,0.3-0.1,0.4c-0.1,0.1-0.2,0.1-0.3,0.2
			c-0.7,0.1-1.3,0.2-2,0.2v1.3c1.3-0.1,2.8-0.1,4.4-0.1c1.8,0,3.5,0,5.2,0.1v-1.3c-0.6,0-1.2,0-1.8-0.1c-0.2,0-0.3-0.1-0.4-0.2
			c-0.1-0.1-0.2-0.1-0.2-0.2c-0.1-0.4-0.2-0.7-0.2-1.1c0-0.3,0-1.5-0.1-3.5V25c0-1,0-2.9,0.1-5.7c0-1.3,0-2.1,0.1-2.5
			c0.5-0.1,1-0.1,1.4-0.1c0.8,0,1.5,0,2.3,0.2c0.7,0.3,1.2,0.7,1.6,1.3c0.5,0.7,0.7,1.5,0.7,2.3c0,0.9-0.2,1.7-0.6,2.5
			c-0.3,0.7-0.9,1.2-1.6,1.5c-0.9,0.3-1.8,0.5-2.7,0.4l-0.2,0.5c0.4,0.3,0.7,0.6,0.9,1c0.7,0.9,1.5,2.1,2.4,3.6l3.2,5.3
			c0.2,0.3,0.3,0.6,0.4,0.9c0.8,0,1.6-0.1,2.4-0.1c0.7,0,1.8,0,3.4,0.1v-1.3c-0.3,0-0.7,0-1-0.1c-0.2-0.1-0.4-0.2-0.5-0.4
			c-0.2-0.2-0.6-0.8-1.4-1.8l-1-1.5l-2.4-3.5l-0.2-0.3c-0.1-0.1-0.2-0.4-0.6-0.9s-0.6-0.9-0.9-1.4c1.4-0.4,2.6-1.3,3.5-2.4
			c0.7-1,1.1-2.1,1.1-3.3c0-0.9-0.3-1.9-0.8-2.6c-0.5-0.7-1.2-1.2-2-1.4c-1.2-0.3-2.4-0.4-3.6-0.3c-0.8,0-1.9,0-3.1,0.1
			c-0.8,0-1.7,0.1-2.7,0.1h-2.9l-2.4-0.1v1.2C119.9,16.3,120.6,16.4,121.3,16.6L121.3,16.6z M145.4,15.1c-1.6,0-3.1,0-4.4-0.1v1.3
			c0.6,0,1.3,0,1.9,0.1c0.1,0,0.3,0.1,0.4,0.2c0.1,0.1,0.1,0.2,0.1,0.3c0.1,0.8,0.2,1.6,0.2,2.4v10.2c0,1,0,2.2-0.1,3.4
			c-0.1,0.8-0.1,1.3-0.1,1.4c0,0.1-0.1,0.2-0.1,0.2c-0.1,0.1-0.3,0.2-0.4,0.2c-0.2,0-0.8,0-1.8,0.1v1.3c1.4-0.1,2.9-0.1,4.4-0.1
			c1.9,0,3.6,0,5.3,0.1v-1.3c-0.6,0-1.2,0-1.8-0.1c-0.2,0-0.3-0.1-0.5-0.2c-0.1-0.1-0.2-0.2-0.2-0.3c-0.1-0.7-0.2-1.3-0.1-2v-8.9
			c0-0.2,0-1.5,0.1-4v-1.5c0-0.3,0.1-0.7,0.1-1c0-0.1,0.1-0.2,0.2-0.2c0.1-0.1,0.3-0.1,0.4-0.2c0.6-0.1,1.2-0.1,1.8-0.1V15
			C149,15.1,147.3,15.1,145.4,15.1L145.4,15.1z M157.1,36.1l4.5,0.1c1.8,0,3.5-0.2,5.2-0.7c1.5-0.5,2.8-1.2,4-2.2
			c1.2-1,2.2-2.3,2.9-3.8c0.7-1.6,1.1-3.4,1.1-5.2c0-1.4-0.2-2.8-0.7-4.2c-0.3-0.8-0.7-1.5-1.2-2.1c-0.6-0.7-1.2-1.2-2-1.7
			c-0.9-0.5-1.8-0.8-2.8-1c-1.4-0.2-2.9-0.4-4.3-0.3c-0.8,0-1.8,0-3.1,0.1c-1.8,0.1-3,0.1-3.6,0.1l-5.4-0.2v1.2
			c1.1,0.1,1.7,0.2,1.9,0.3c0.1,0,0.3,0.1,0.4,0.2c0.1,0.1,0.1,0.1,0.1,0.2c0.1,0.9,0.2,1.8,0.2,2.7c0.1,2.6,0.1,4.5,0.1,5.9V28
			c0,3-0.1,5.2-0.2,6.6c-0.3,0.2-0.7,0.5-1,0.7l-0.4,0.2v0.7L157.1,36.1L157.1,36.1z M158.5,28.4v-3.5c0-4,0.1-6.7,0.2-8.1
			c0.9-0.1,1.7-0.2,2.6-0.2c1.6-0.1,3.1,0.1,4.6,0.5c1,0.3,1.9,1,2.5,1.8c0.7,0.8,1.2,1.8,1.4,2.8c0.3,1.1,0.4,2.2,0.4,3.3
			c0,1.2-0.1,2.4-0.4,3.5c-0.3,1-0.7,2-1.2,2.8c-0.4,0.7-1,1.3-1.7,1.8c-0.6,0.4-1.3,0.7-2,0.9c-1.2,0.3-2.4,0.4-3.6,0.4
			c-0.9,0-1.8-0.1-2.7-0.2C158.5,33.4,158.5,31.4,158.5,28.4L158.5,28.4z M175.6,36.1l3.5,0.1V35c-0.7,0-1.5-0.1-2.2-0.3
			c-0.2-0.1-0.3-0.3-0.2-0.5c0.1-0.9,0.4-1.8,0.8-2.6l0.7-1.8h7.8l1.4,3.3c0.2,0.4,0.3,0.8,0.4,1.2c0,0.2-0.1,0.3-0.2,0.4
			c-0.7,0.2-1.4,0.2-2.1,0.2v1.2l5.3-0.1l4.2,0.1V35l-0.7-0.1c-0.3,0-0.6,0-0.9-0.1c-0.1,0-0.2-0.1-0.3-0.2
			c-0.1-0.1-0.2-0.2-0.3-0.4l-0.6-1.4l-0.9-2.1l-6.7-15.9h-2.2l-1.3,3.4l-3.9,9.8c-0.5,1.2-1,2.5-1.5,3.7c-0.3,0.8-0.7,1.5-1,2.3
			c-0.1,0.2-0.2,0.3-0.3,0.5c-0.1,0.1-0.3,0.2-0.4,0.2c-0.5,0.1-1,0.1-1.5,0.2v1.2L175.6,36.1L175.6,36.1z M182,20.2l3.2,7.8h-6.4
			L182,20.2L182,20.2z M63.1,2.8c0.1,0,0.2,0.1,0.2,0.2c0,0.1,0.1,0.3,0.1,0.4v5.7c0.1,0.6,0.4,1.1,0.8,1.5c0.3,0.2,0.6,0.4,1,0.5
			c0.6,0.2,1.2,0.3,1.8,0.3c0.5,0,1-0.1,1.4-0.2c0.4-0.1,0.8-0.3,1.1-0.5c0.3-0.2,0.6-0.5,0.7-0.8c0.2-0.3,0.3-0.6,0.3-1
			c0.1-0.4,0.1-0.8,0.1-1.2V6.1V4.3c0-0.4,0-0.9,0.1-1.3c0-0.1,0.1-0.1,0.1-0.2c0.2-0.1,0.5-0.1,0.7-0.1V2.2l-1.4,0h-1.6v0.5
			c0.3,0,0.6,0,0.9,0.1c0.1,0,0.1,0.1,0.2,0.2c0.1,0.3,0.1,0.7,0.1,1v3.3c0,0.6,0,1.2-0.2,1.8c-0.2,0.3-0.4,0.6-0.8,0.8
			c-0.4,0.2-0.9,0.3-1.4,0.3c-0.4,0-0.8-0.1-1.2-0.2c-0.3-0.1-0.6-0.3-0.7-0.6c-0.2-0.3-0.3-0.6-0.3-1V4.8c0-0.6,0-1.2,0-1.7
			c0-0.1,0.1-0.2,0.1-0.2c0.3-0.1,0.6-0.1,0.9-0.1V2.2h-1.1l-0.9,0l-2,0v0.5L63.1,2.8L63.1,2.8z M74.4,11.1h3.1v-0.5h-0.1
			c-0.2,0-0.4,0-0.6-0.1c-0.1,0-0.1,0-0.2-0.1c0,0-0.1-0.1-0.1-0.1c-0.1-0.3-0.1-0.6-0.1-0.9V4.2c2.5,3.1,4.4,5.4,5.8,6.9l1.1,0.2
			l0.1-0.1c-0.1-0.6-0.1-2.3-0.1-5.1V4.4c0-0.5,0-1,0.1-1.5c0,0,0-0.1,0.1-0.1c0.3-0.1,0.6-0.1,0.9-0.1V2.2h-3v0.5
			c0.3,0,0.7,0,1,0.1c0.1,0.1,0.1,0.2,0.1,0.3c0.1,0.4,0.1,1.7,0.1,4v1.5c-0.6-0.6-1.3-1.4-2.2-2.5c-1.1-1.3-2.2-2.6-3.2-3.9h-2.7
			v0.5c0.3,0,0.5,0,0.8,0.1c0.1,0,0.1,0,0.2,0.1c0,0.1,0.1,0.1,0.1,0.2c0,0.2,0,0.4,0,0.6v5.2c0,0.6-0.1,1-0.1,1.2
			c0,0.1,0,0.2-0.1,0.2c0,0-0.1,0.1-0.1,0.1c-0.3,0-0.6,0.1-0.9,0.1L74.4,11.1L74.4,11.1z M89,2.2h-1.8v0.5c0.3,0,0.5,0,0.8,0
			c0.1,0,0.1,0,0.2,0.1c0,0,0.1,0.1,0.1,0.1c0.1,0.3,0.1,0.7,0.1,1v4.3c0,0.4,0,0.9-0.1,1.4v0.6c0,0,0,0.1-0.1,0.1
			c-0.1,0-0.1,0.1-0.2,0.1h-0.8V11h4v-0.5c-0.3,0-0.5,0-0.8,0c-0.1,0-0.2-0.1-0.2-0.1c0,0-0.1-0.1-0.1-0.1c-0.1-0.3-0.1-0.6-0.1-0.9
			V5.7V4V3.4c0-0.1,0-0.3,0.1-0.4c0-0.1,0.1-0.1,0.1-0.1c0.1,0,0.1-0.1,0.2-0.1c0.3,0,0.5,0,0.8,0V2.2L89,2.2L89,2.2z M99.1,11.1
			c0.3-0.7,0.8-2,1.5-3.7l0.9-2l0.4-1.1c0.2-0.5,0.4-1,0.7-1.4c0.2-0.1,0.5-0.1,0.7-0.1V2.2h-3v0.6h0.9c0,0,0.1,0,0.1,0.1
			c0,0.1,0,0.1,0,0.2c0,0,0,0.1,0,0.2c0,0.2-0.2,0.5-0.3,1c-0.1,0.4-0.3,0.8-0.4,1.2l-1.4,3.5L97.6,5V4.9l-0.3-0.6
			c-0.2-0.4-0.3-0.8-0.4-1.2c0-0.1,0-0.1,0.1-0.2c0.1,0,0.1-0.1,0.2-0.1c0.3,0,0.5-0.1,0.8-0.1V2.2h-4.1v0.6c0.3,0,0.5,0,0.8,0.1
			c0.2,0.2,0.3,0.3,0.4,0.6c0.2,0.3,0.6,1.3,1.3,3l0.9,2.2l1,2.5L99.1,11.1L99.1,11.1z M108.3,11h3.1c0.4,0,0.8,0,1.2,0l0.1-0.1
			c0-0.7,0.1-1.4,0.1-2.1h-0.4c0,0.4-0.1,0.8-0.2,1.1c0,0,0,0.1-0.1,0.1c-0.2,0.1-0.5,0.1-0.7,0.1h-2.5V6.8c0.3,0,0.7,0,1,0
			c0.4,0,0.8,0,1.1,0.1c0.1,0,0.2,0.1,0.3,0.2c0.1,0.3,0.1,0.6,0.1,0.9h0.5V5.2h-0.5c0,0.3,0,0.5-0.1,0.8c0,0.1,0,0.1-0.1,0.1
			c-0.1,0-0.3,0-0.4,0h-1.9V4.8c0-0.6,0-1.2,0.1-1.8h1.2c0.4,0,0.8,0,1.2,0.1c0.2,0,0.3,0,0.5,0.1c0,0,0.1,0.1,0.1,0.1
			c0,0.3,0.1,0.6,0.1,0.9h0.5l0.1-0.9l0.1-0.9V2.3l-0.3-0.1h-6.5v0.5c0.3,0,0.6,0,0.9,0.1c0,0,0.1,0.1,0.1,0.1
			c0.1,0.3,0.1,0.6,0.1,0.9v4.1c0,0.3,0,0.9-0.1,1.6c0,0.4,0,0.7-0.1,0.9c-0.2,0.1-0.4,0.3-0.6,0.4v0.3L108.3,11z M116.6,2.8
			c0,0,0.1,0.1,0.1,0.1c0.1,0.3,0.1,0.7,0.1,1v3.7l-0.1,1.8c0,0.3,0,0.5-0.1,0.8c0,0.1,0,0.1-0.1,0.2c0,0-0.1,0.1-0.1,0.1
			c-0.3,0-0.6,0.1-0.8,0.1v0.6h4v-0.6c-0.2,0-0.5,0-0.7,0c-0.1,0-0.1,0-0.2-0.1c0,0-0.1-0.1-0.1-0.1c0-0.1-0.1-0.3-0.1-0.5V8.4v-2V4
			V3c0.2,0,0.4-0.1,0.6,0c0.3,0,0.7,0,1,0.1c0.3,0.1,0.5,0.3,0.7,0.5c0.2,0.3,0.3,0.6,0.3,1c0,0.4-0.1,0.7-0.3,1
			c-0.1,0.3-0.4,0.5-0.7,0.7c-0.4,0.1-0.8,0.2-1.2,0.2l-0.1,0.2c0.2,0.1,0.3,0.3,0.4,0.4c0.3,0.4,0.6,0.9,1,1.5l1.4,2.2
			c0.1,0.1,0.1,0.2,0.2,0.4h2.4v-0.6c-0.1,0-0.3,0-0.4-0.1c-0.1,0-0.2-0.1-0.2-0.2c-0.1-0.1-0.3-0.3-0.6-0.7l-0.4-0.6l-1-1.5
			l-0.1-0.1L121.5,7c-0.1-0.2-0.3-0.4-0.4-0.6c0.6-0.2,1.1-0.5,1.5-1c0.3-0.4,0.5-0.9,0.5-1.4c0-0.4-0.1-0.8-0.3-1.1
			c-0.2-0.3-0.5-0.5-0.8-0.6c-0.5-0.1-1-0.2-1.5-0.1h-4.7v0.5C116.1,2.7,116.4,2.8,116.6,2.8L116.6,2.8z M133,3.4
			c0-0.3,0.1-0.5,0.1-0.8l-0.1-0.2c-0.3-0.2-0.7-0.3-1.1-0.3c-0.4-0.1-0.9-0.1-1.3-0.1c-0.4,0-0.8,0-1.3,0.1
			c-0.4,0.1-0.8,0.2-1.1,0.5c-0.3,0.2-0.6,0.6-0.8,0.9c-0.2,0.4-0.3,0.9-0.3,1.3c0,0.3,0.1,0.6,0.2,0.9c0.1,0.3,0.3,0.5,0.5,0.8
			c0.3,0.2,0.6,0.4,0.9,0.5c0.2,0.1,0.7,0.2,1.5,0.3c0.4,0.1,0.8,0.2,1.1,0.4c0.2,0.1,0.4,0.3,0.5,0.5c0.1,0.2,0.2,0.5,0.1,0.7
			c0,0.3-0.1,0.6-0.2,0.9c-0.2,0.3-0.4,0.5-0.7,0.6c-0.3,0.1-0.7,0.2-1.1,0.2c-0.4,0-0.9-0.1-1.3-0.3c-0.3-0.1-0.6-0.4-0.8-0.7
			c-0.1-0.4-0.1-0.8-0.1-1.1h-0.5c0,0.7,0,1.5-0.2,2.2c0.4,0.2,0.9,0.4,1.3,0.5c0.5,0.1,0.9,0.2,1.4,0.1c0.6,0,1.2-0.1,1.8-0.3
			c0.3-0.1,0.7-0.3,0.9-0.6c0.3-0.2,0.5-0.5,0.7-0.9c0.2-0.4,0.4-0.9,0.3-1.4c0-0.3,0-0.6-0.1-0.8c-0.1-0.2-0.2-0.4-0.3-0.6
			c-0.1-0.2-0.3-0.3-0.5-0.4c-0.3-0.1-0.5-0.3-0.8-0.3l-0.9-0.2l-1-0.2c-0.3-0.1-0.5-0.2-0.7-0.3c-0.2-0.1-0.3-0.2-0.4-0.4
			c-0.1-0.2-0.1-0.4-0.1-0.7c0-0.4,0.2-0.7,0.5-1c0.4-0.3,0.9-0.5,1.3-0.4c0.4,0,0.7,0.1,1.1,0.2c0.3,0.1,0.5,0.3,0.7,0.5
			c0,0.3,0.1,0.7,0.1,1h0.5C133,4,133,3.7,133,3.4L133,3.4z M138.7,2.2h-1.8v0.5c0.3,0,0.5,0,0.8,0c0.1,0,0.1,0,0.1,0.1
			c0,0,0.1,0.1,0.1,0.1c0,0.3,0.1,0.7,0.1,1v4.3c0,0.4,0,0.9-0.1,1.4v0.6c0,0,0,0.1-0.1,0.1c-0.1,0-0.1,0.1-0.2,0.1h-0.8V11h4v-0.5
			c-0.3,0-0.5,0-0.8,0c-0.1,0-0.1,0-0.2-0.1c0,0-0.1-0.1-0.1-0.1c-0.1-0.3-0.1-0.6-0.1-0.9V5.7V4V3.4c0-0.1,0-0.3,0.1-0.4
			c0,0,0-0.1,0.1-0.1c0.1,0,0.1-0.1,0.2-0.1c0.3,0,0.5,0,0.8,0V2.2L138.7,2.2L138.7,2.2z M147.5,11c0.6,0,1.3,0,2.1,0.1v-0.5
			c-0.3,0-0.6,0-0.9-0.1c-0.1,0-0.2-0.1-0.2-0.2c-0.1-0.5-0.1-1.1-0.1-1.6V4.8V3h0.9c0.5,0,0.9,0,1.2,0c0.1,0,0.1,0,0.2,0
			c0,0.1,0.1,0.2,0.1,0.3c0,0.3,0.1,0.6,0.1,0.9h0.5V2.9c0-0.2,0-0.5,0.1-0.7l-0.1-0.1h-8l-0.1,0.1c0,0.2,0,0.4,0.1,0.6s0,0.7,0,1.5
			h0.5c0-0.3,0-0.7,0.1-1c0-0.1,0-0.2,0.1-0.2c0.1,0,0.2-0.1,0.2,0h2.1v5.5c0,0.5,0,1.1-0.1,1.6c0,0.1-0.1,0.2-0.2,0.2
			c-0.3,0.1-0.6,0.1-0.9,0.1v0.5C146.1,11,146.8,11,147.5,11L147.5,11z M157.9,4.6c-0.3-0.5-0.6-1.1-0.9-1.6
			c-0.1-0.2-0.3-0.4-0.5-0.6c-0.2-0.2-0.4-0.3-0.6-0.4l-0.7,0.2l-1.4,0.3V3c0.2,0,0.4,0,0.6,0c0.2,0.1,0.3,0.3,0.4,0.4
			c0.4,0.4,0.7,0.9,1,1.4c0.5,0.7,0.9,1.4,1.3,2.2c0.1,0.2,0.2,0.4,0.2,0.6V10c0,0.1,0,0.3-0.1,0.4c0,0.1-0.1,0.1-0.2,0.1
			c-0.3,0-0.6,0.1-0.9,0.1v0.6h4.1v-0.6c-0.3,0-0.6,0-0.8-0.1c-0.1,0-0.1-0.1-0.2-0.1c-0.1-0.1-0.1-0.3-0.1-0.4c0-0.4,0-0.8,0-1.2
			V7.7c0-0.2,0-0.3,0-0.5c0-0.2,0.1-0.3,0.2-0.5c0.1-0.3,0.5-0.9,1.1-1.8s1.2-1.7,1.7-2.4V2.2h-1c-0.1,0.1-0.2,0.4-0.4,0.8l-1.2,2.1
			l-0.8,1.3C158.7,6.2,158.5,5.6,157.9,4.6L157.9,4.6z"/>
		<path class="st0" d="M36.2,30.4v-8.7h8V16h-8V7.9H45V11h5.8V2.2H27.6v5.7h2.2v22.5h-2.2v5.7h10.7v-5.7L36.2,30.4z M24.6,23.3V7.9
			h2.1V2.2H16v5.7h2.1v13.5c0,5.7-0.6,8.4-4.7,8.4S8.7,27,8.7,21.4V7.9h2.1V2.2H0v5.7h2.1v15.4c0,3.4,0,6.1,1.6,8.6
			c1.8,2.8,5,4.6,9.7,4.6C21.6,36.5,24.6,32.2,24.6,23.3z"/>
	</g>
</g>
</svg>
