<?xml version="1.0" encoding="utf-8"?>
<!-- Generator: Adobe Illustrator 22.0.1, SVG Export Plug-In . SVG Version: 6.00 Build 0)  -->
<svg version="1.1" id="Livello_1" xmlns="http://www.w3.org/2000/svg" xmlns:xlink="http://www.w3.org/1999/xlink" x="0px" y="0px"
	 viewBox="0 0 399 135" style="enable-background:new 0 0 399 135;" xml:space="preserve">
<style type="text/css">
	.st0{fill:#FFFFFF;}
</style>
<title>world-bicycle-relief</title>
<g transform="translate(-1 -2)">
	<path class="st0" d="M119.1,71.2l3.8-6.1c8.8-13.7,26.3-30.1,48.2-36.8c-11.4,9.3-21.3,21.6-28.3,36.8l-2.6,6.1
		c-3.2,8.2-6.1,18.7-7.3,29.5h6.4c1.2-10.2,3.8-21,7.6-29.5l2.9-6.1c7.9-15.8,20.4-30.4,37.1-40c-6.4,10.5-13.4,28-16.4,40l-1.5,6.1
		c-1.5,5.8-3.5,19-4.1,29.5h6.4c0.9-10.5,2.6-22.8,4.4-29.5l1.5-6.1C181,51.4,188,35,195,24.5V101h6.4V24.5
		c7,10.5,14,26.9,17.8,40.6l1.5,6.1c1.8,6.7,3.5,19.3,4.4,29.5h6.4c-0.9-10.5-2.6-23.7-4.4-29.5l-1.5-6.1c-2.9-12-9.9-29.5-16.4-40
		c16.6,9.6,28.9,24.2,37.1,40l2.9,6.1c3.8,8.5,6.4,19.3,7.6,29.5h6.7c0-0.3-0.3-0.6-0.3-0.9c-1.2-10.5-4.1-20.7-7.3-28.6l-2.6-6.1
		c-7-14.9-16.6-27.4-28.3-36.8c21.9,6.7,39.4,22.8,48.2,36.8l3.8,6.1c5,9.1,8.2,19.3,9.9,29.5h6.4c-6.4-47-46.4-82.9-95.2-82.9
		s-88.8,36.2-95.2,82.9h6.4C110.7,90.5,114.2,80.3,119.1,71.2L119.1,71.2z"/>
	<path class="st0" d="M198,11.4c52.3,0,95.2,39.1,101.6,89.3h9.1c0.3-0.6,0.3-1.5,0.3-2l-1.5-8.8c-0.3-2-2.3-3.5-4.1-3.2h-0.3
		c-0.3-0.9-0.3-1.8-0.6-2.3h0.3c1.8-0.6,2.6-2.9,2-4.7l-2.9-8.5c-0.6-2-2.6-2.9-4.7-2.3h-0.3c-0.3-0.9-0.6-1.5-1.2-2.3h0.3
		c1.8-0.9,2.3-3.2,1.2-5l-4.4-7.6c-1.2-1.8-3.2-2.6-5-1.5c-0.6-0.6-0.9-1.5-1.5-2c1.5-1.2,1.8-3.5,0.3-5.3l-5.8-6.7
		c-1.5-1.5-3.5-1.8-5.3-0.6l-1.8-1.8c1.2-1.5,0.9-3.8-0.6-5.3l-6.7-5.8c-1.5-1.5-3.8-1.2-5.3,0.3c-0.6-0.6-1.5-0.9-2-1.5
		c0.9-1.8,0.3-3.8-1.5-5l-7.6-4.4c-1.8-1.2-4.1-0.6-5,1.2c-0.9-0.3-1.5-0.6-2.3-1.2c0.6-1.8-0.6-3.8-2.3-4.4l-8.5-2.9
		c-2-0.6-4.1,0.3-4.7,2c-0.9-0.3-1.8-0.6-2.3-0.6c0.3-1.8-1.2-3.5-3.2-4.1l-8.8-1.5c-2-0.3-3.8,0.9-4.4,2.6c-0.9,0-1.8-0.3-2.6-0.3
		c0-1.8-1.8-3.5-3.8-3.5h-9.1c-2,0-3.8,1.5-3.8,3.5c-0.9,0-1.8,0-2.6,0.3c-0.3-1.8-2.3-2.9-4.4-2.6l-8.8,1.5c-2,0.3-3.5,2-3.2,4.1
		c-0.9,0.3-1.8,0.3-2.3,0.6c-0.6-1.8-2.9-2.6-4.7-2l-8.5,2.9c-2,0.6-2.9,2.6-2.3,4.4c-0.9,0.3-1.5,0.6-2.3,1.2c-0.9-1.8-3.2-2-5-1.2
		l-7.6,4.4c-1.8,1.2-2.3,3.2-1.5,5c-0.6,0.6-1.5,0.9-2,1.5c-1.2-1.5-3.5-1.5-5.3-0.3l-6.7,5.8c-1.5,1.5-1.8,3.5-0.6,5.3L120,38
		c-1.5-1.2-3.8-0.9-5.3,0.6l-5.8,6.7c-1.5,1.5-1.2,3.8,0.3,5.3c-0.6,0.6-0.9,1.5-1.5,2c-1.8-0.9-3.8-0.3-5,1.5l-4.4,7.6
		c-1.2,1.8-0.6,4.1,1.2,5h0.3c-0.3,0.9-0.6,1.5-1.2,2.3h-0.3c-1.8-0.6-3.8,0.3-4.7,2.3l-2.9,8.5c-0.6,2,0.3,4.1,2,4.7h0.3
		c-0.3,0.9-0.3,1.5-0.6,2.3h-0.3c-2-0.3-3.8,1.2-4.1,3.2l-1.5,8.8c0,0.6,0,1.5,0.3,2h9.1C102.8,50.2,146,11.4,198,11.4L198,11.4z"/>
	<path class="st0" d="M198,11.4c-52.3,0-95.2,39.1-101.6,89.3h6.4c6.4-47,46.4-82.9,95.2-82.9c48.8,0,88.8,36.2,95.2,82.9h6.4
		C293.1,50.2,250.2,11.4,198,11.4L198,11.4z"/>
	<path class="st0" d="M177.2,64.8l-1.5,6.1c-1.8,6.7-3.5,19.3-4.4,29.5H195V23.9C188,34.7,181,51.4,177.2,64.8L177.2,64.8z
		 M219,64.8c-3.8-13.7-10.8-30.1-17.8-40.6v76.5h23.6c-0.9-10.5-2.6-22.8-4.4-29.5L219,64.8L219,64.8z M246.1,64.8
		c-7.9-15.8-20.4-30.4-37.1-40c6.4,10.5,13.4,28,16.4,40l1.5,6.1c1.8,5.8,3.5,19,4.4,29.5h25.4c-1.2-10.2-3.8-21-7.6-29.5
		L246.1,64.8L246.1,64.8z"/>
	<path class="st0" d="M273.3,64.8C264.5,51.1,247,34.7,225.1,28c11.4,9.3,21.3,21.6,28.3,36.8l2.6,6.1c3.2,7.9,5.8,18.1,7.3,28.6
		c0,0.3,0.3,0.6,0.3,0.9H287c-1.5-10.2-4.7-20.4-9.9-29.5L273.3,64.8L273.3,64.8z M170.5,64.8c2.9-12,10.2-29.5,16.4-40
		c-16.6,9.6-28.9,24.2-37.1,40l-2.9,6.1c-3.8,8.5-6.4,19.3-7.6,29.5h25.4c0.9-10.5,2.6-23.7,4.1-29.5L170.5,64.8z"/>
	<path class="st0" d="M142.8,64.8c7-14.9,16.6-27.4,28.3-36.8c-21.9,6.7-39.4,22.8-48.2,36.8l-3.8,6.1c-5,9.1-8.2,19.3-9.6,29.5
		h23.6c1.2-11.1,4.1-21.6,7.3-29.5L142.8,64.8L142.8,64.8z"/>
	<path class="st0" d="M2.3,136.1l-1.2-22.2h5l0.3,16.9l9.1-16.9H21l0.3,16.9l9.3-16.9h4.7l-12.8,22.2h-5.8v-16.4l-8.8,16.4H2.3z"/>
	<path class="st0" d="M55.5,125c-1.8,6.7-5.8,11.4-14.3,11.4c-7.6,0-9.9-3.8-7.9-11.7c2.3-8.8,7.9-11.4,14.3-11.4
		C53.4,113.6,58.1,115.6,55.5,125z M42,132.6c4.4,0,7-3.2,8.2-7.6c0.9-3.2,1.5-7.6-3.8-7.6c-4.1,0-6.7,2.9-8.2,7.6
		C37.1,129.1,37.4,132.6,42,132.6z M55.5,136.1l6.1-22.2H73c5.3,0,7.3,1.8,5.8,6.7c-0.9,3.2-2.9,5.5-6.1,6.1l2.9,9.3h-5.3l-2.6-8.8
		h-5.5l-2.3,8.8L55.5,136.1L55.5,136.1z M65.1,118l-1.5,5.5h5.5c3.2,0,4.4-0.6,5-2.9c0.3-1.5,0.9-2.6-3.5-2.6H65.1z M93.1,136.1
		h-5.8c-5.5,0-9.1-1.2-6.7-9.1l3.8-13.1h4.7l-3.5,12.3c-1.2,4.4-1.8,6.4,3.2,6.4h5.5C94.3,132.6,93.1,136.1,93.1,136.1z M95.5,136.1
		l6.1-22.2h10.2c7.3,0,9.3,3.8,7.3,11.4c-1.5,5-4.4,10.5-13.1,10.5H95.5L95.5,136.1L95.5,136.1z M105.4,117.7l-4.1,14.3h5.3
		c3.8,0,5.5-0.9,7.3-7.3c1.5-5,1.2-7.3-3.5-7.3h-5C105.4,117.4,105.4,117.7,105.4,117.7z M131.1,136.1l6.1-22.2h11.4
		c3.8,0,8.2,0.3,6.4,6.1c-0.6,2-2,3.8-4.7,5c1.5,0.9,2.6,2,2,5c-1.5,5-5,6.1-9.1,6.1H131.1z M141,118l-1.5,5h6.7
		c1.8,0,3.2-0.6,3.8-2.6c0.6-1.8-0.3-2.6-2.3-2.6L141,118z M136.9,132h6.7c1.5,0,3.2-0.3,3.8-2.6c0.6-1.8-0.3-2.6-2.3-2.6h-6.7
		L136.9,132z"/>
	<path class="st0" d="M165.5,113.9l-6.1,22.2h-5l6.1-22.2H165.5z"/>
	<path class="st0" d="M185.7,117.7h-7.6c-3.2,0-5.8,1.8-7.6,8.2c-1.8,6.1,0.6,6.4,3.8,6.4h7.6l-1.2,3.8h-7.9c-7,0-9.3-3.8-7.3-10.5
		c1.8-6.7,5.5-11.4,13.7-11.4h7.6C186.9,114.2,185.7,117.7,185.7,117.7z"/>
	<path class="st0" d="M191.5,126.1l-4.7-12.3h5.3l3.2,8.5l7.9-8.5h5.3l-12,12.3l-2.6,9.6h-4.7L191.5,126.1z"/>
	<path class="st0" d="M225.1,117.7h-7.6c-3.2,0-5.8,1.8-7.6,8.2c-1.8,6.1,0.6,6.4,3.5,6.4h7.6l-1.2,3.8H212c-7,0-9.3-3.8-7.3-10.5
		c1.8-6.7,5.5-11.4,13.7-11.4h7.6L225.1,117.7L225.1,117.7z M238,136.1h-5.8c-5.5,0-9.1-1.2-6.7-9.1l3.8-13.1h4.7l-3.5,12.3
		c-1.2,4.4-1.8,6.4,3.2,6.4h5.5L238,136.1L238,136.1z M262.2,117.7h-7.6c-3.2,0-5.5,1.8-6.7,5.3h12.8l-1.2,3.8h-12.8
		c-1.2,4.1,0.3,5.5,3.8,5.5h7.6l-1.2,3.8h-7.9c-7,0-9.3-3.8-7.3-10.5c1.8-6.7,5.5-11.4,13.7-11.4h7.6
		C263.1,114.2,262.2,117.7,262.2,117.7z M273.3,136.1l6.1-22.2h11.4c5.3,0,7.3,1.8,5.8,6.7c-0.9,3.2-2.9,5.5-6.1,6.1l2.9,9.3h-5.3
		l-2.6-8.8h-5.3l-2.3,8.8L273.3,136.1L273.3,136.1z M282.9,118l-1.5,5.5h5.5c3.2,0,4.4-0.6,5-2.9c0.3-1.5,0.9-2.6-3.5-2.6H282.9z
		 M318,117.7h-7.6c-3.2,0-5.5,1.8-6.7,5.3h12.8l-1.2,3.8h-12.8c-1.2,4.1,0.3,5.5,3.8,5.5h7.6l-1.2,3.8h-7.9c-7,0-9.3-3.8-7.3-10.5
		c1.8-6.7,5.5-11.4,13.7-11.4h7.6L318,117.7L318,117.7z M331.7,136.1h-5.8c-5.5,0-9-1.2-6.7-9.1l3.8-13.1h4.7l-3.5,12.3
		c-1.2,4.4-1.8,6.4,3.2,6.4h5.5L331.7,136.1z"/>
	<path class="st0" d="M345.1,113.9l-6.1,22.2h-5l6.1-22.2H345.1z"/>
	<path class="st0" d="M365.5,117.7H358c-3.2,0-5.5,1.8-6.7,5.3h12.8l-1.2,3.8h-12.8c-1.2,4.1,0.3,5.5,3.8,5.5h7.6l-1.2,3.8h-7.9
		c-7,0-9.3-3.8-7.3-10.5c1.8-6.7,5.5-11.4,13.7-11.4h7.6C366.4,114.2,365.5,117.7,365.5,117.7z M364.4,136.1l2.9-10.2
		c2.9-10.8,7.3-12,14.3-12h7l-1.2,3.8h-7.6c-3.8,0-5.8,1.2-7.3,5.5h13.1l-1.2,3.8h-13.1l-2.6,9.1L364.4,136.1L364.4,136.1z
		 M395.3,111.5c2.3,0,4.4,2,4.4,4.4c0,2.3-2,4.4-4.4,4.4c-2.3,0-4.4-2-4.4-4.4C390.9,113.3,392.7,111.5,395.3,111.5L395.3,111.5z
		 M395.3,112.1c-2,0-3.5,1.8-3.5,3.8c0,2,1.5,3.8,3.5,3.8c2,0,3.5-1.8,3.5-3.8C398.8,113.9,397.1,112.1,395.3,112.1z M394.5,118.2
		h-0.9v-5h1.5c0.9,0,1.2,0.3,1.5,0.3c0.3,0.3,0.6,0.6,0.6,0.9c0,0.6-0.3,1.2-0.9,1.2c0.3,0,0.6,0.6,0.9,1.2c0,0.9,0.3,1.2,0.3,1.2
		h-0.9c0-0.3-0.3-0.6-0.3-1.2s-0.3-0.9-1.2-0.9h-0.6L394.5,118.2L394.5,118.2z M394.5,115.6h0.6c0.6,0,1.2-0.3,1.2-0.9
		c0-0.3-0.3-0.9-1.2-0.9h-0.6V115.6z"/>
</g>
</svg>
